<?xml version="1.0" encoding="utf-8"?>
<!-- Generator: Adobe Illustrator 16.0.0, SVG Export Plug-In . SVG Version: 6.00 Build 0)  -->
<!DOCTYPE svg PUBLIC "-//W3C//DTD SVG 1.1//EN" "http://www.w3.org/Graphics/SVG/1.1/DTD/svg11.dtd">
<svg version="1.1" id="Layer_1" xmlns="http://www.w3.org/2000/svg" xmlns:xlink="http://www.w3.org/1999/xlink" x="0px" y="0px"
	 width="398.136px" height="28.889px" viewBox="0 0 398.136 28.889" enable-background="new 0 0 398.136 28.889"
	 xml:space="preserve">
<g>
	<g>
		<path fill="#FFFFFF" d="M18.822,15.419l-0.78,4.32c-1.62,0.78-4.77,1.98-7.29,2.34c-5.58,0-10.8-3.78-10.8-10.77
			S4.602,0.9,11.292,0c3.12,0,5.88,1.41,7.169,2.34v4.05h-1.65l-0.96-2.79c-0.81-0.87-2.52-2.04-4.979-2.04
			c-4.44,0-7.47,3.15-7.47,9.029c0,4.86,2.97,9.84,8.22,9.84c1.8,0,3.12-0.99,3.93-1.68l1.62-3.33H18.822z"/>
		<path fill="#FFFFFF" d="M34.991,14.189c0,4.47-2.729,7.05-7.379,7.8c-3.99,0-6.69-3.09-6.69-7.17c0-4.5,2.73-7.05,7.38-7.83
			C32.292,6.99,34.991,10.109,34.991,14.189z M28.362,20.519c2.4,0,3.63-2.46,3.63-5.7c0-3.81-1.83-6.36-4.44-6.36
			c-2.43,0-3.63,2.46-3.63,5.73C23.922,17.609,25.692,20.519,28.362,20.519z"/>
		<path fill="#FFFFFF" d="M45.461,9.06c-0.48-0.36-0.93-0.48-1.74-0.48c-2.04,0-3.6,2.28-3.6,5.55c0,3.21,1.74,5.61,4.68,5.61
			c1.14,0,2.34-0.57,3.39-1.26l0.48,1.14c-1.38,0.99-2.91,1.74-4.89,2.37c-3.84,0-6.689-2.52-6.689-7.14
			c0-4.709,3.45-6.959,7.14-7.859c1.38,0,3.24,0.69,4.14,1.5v3h-2.22L45.461,9.06z"/>
		<path fill="#FFFFFF" d="M62.501,21.479l-1.8,0.09l-5.55-6.93l-0.33-0.75v6.33l1.65,0.3l-0.15,1.05l-2.85-0.09l-3.45,0.09
			l-0.15-1.05l2.1-0.3V2.16l-2.1,0.06l-0.15-1.05l3.6-0.93l1.5-0.12v13.259l0.81-0.36l4.86-4.26l-0.87-0.3V7.41l2.49,0.09l2.25-0.09
			l0.15,1.05l-1.59,0.3l-5.67,4.59l0.66,0.39l5.79,6.48l1.35,0.3l-0.15,1.05L62.501,21.479z"/>
		<path fill="#FFFFFF" d="M70.961,11.339l3.42-4.2h2.4v3h-2.22c-0.72,0.15-2.04,1.14-2.85,2.13l-0.6,0.72v7.14l3.15,0.3l-0.15,1.14
			l-4.35-0.09l-3.359,0.09l-0.15-1.05l2.1-0.3V9.27l-2.1,0.18l-0.15-1.05l3.6-0.93l1.2-0.09L70.961,11.339z"/>
		<path fill="#FFFFFF" d="M80.861,13.889c0,3.42,1.83,5.85,4.98,5.85c1.2,0,2.64-0.57,3.75-1.26l0.479,1.14
			c-1.439,0.99-3.33,1.83-5.25,2.37c-3.63,0-6.9-2.58-6.9-7.29c0-4.439,2.67-6.81,6.78-7.709c3.96,0,5.31,2.49,5.31,5.64v1.26
			H80.861z M86.891,12.39c0-2.31-0.45-3.9-2.76-3.9c-1.83,0-3,1.71-3.24,4.2L86.891,12.39z"/>
		<path fill="#FFFFFF" d="M94.721,21.479l-3.45,0.09l-0.15-1.05l2.1-0.3V2.16l-2.1,0.06l-0.15-1.05l3.6-0.93l1.5-0.12v20.099
			l2.25,0.3l-0.15,1.05L94.721,21.479z"/>
		<path fill="#FFFFFF" d="M102.82,21.479l-3.45,0.09l-0.15-1.05l2.1-0.3V2.16l-2.1,0.06l-0.15-1.05l3.6-0.93l1.5-0.12v20.099
			l2.25,0.3l-0.15,1.05L102.82,21.479z"/>
		<path fill="#FFFFFF" d="M118.419,18.539c0.9,1.11,2.55,1.89,4.23,1.89c2.58,0,4.08-1.62,4.08-3.81c0-2.04-1.32-3.21-3.12-3.99
			l-3.63-1.59c-2.16-0.93-3.93-2.31-3.93-4.98c0-3.27,3-5.189,7.169-6.06c1.89,0,3.99,0.63,5.49,1.74v4.05h-1.5l-0.87-2.73
			c-0.78-0.81-1.74-1.47-3.54-1.47c-2.37,0-3.78,1.29-3.78,3.3c0,1.65,1.17,2.67,2.82,3.39l3.45,1.5c2.37,1.02,4.439,2.52,4.41,5.58
			c0,2.82-1.92,5.55-7.56,6.72c-2.76,0-4.62-0.78-6.21-2.04l-0.66-4.05h2.1L118.419,18.539z"/>
		<path fill="#FFFFFF" d="M140.05,9.06c-0.48-0.36-0.93-0.48-1.74-0.48c-2.04,0-3.6,2.28-3.6,5.55c0,3.21,1.74,5.61,4.68,5.61
			c1.14,0,2.34-0.57,3.39-1.26l0.48,1.14c-1.38,0.99-2.91,1.74-4.89,2.37c-3.84,0-6.69-2.52-6.69-7.14
			c0-4.709,3.45-6.959,7.14-7.859c1.38,0,3.24,0.69,4.14,1.5v3h-2.22L140.05,9.06z"/>
		<path fill="#FFFFFF" d="M149.56,20.219l1.65,0.3l-0.15,1.05l-2.85-0.09l-3.45,0.09l-0.15-1.05l2.1-0.3V2.13l-2.1,0.06l-0.15-1.02
			l3.6-0.93l1.5-0.12v9.719l4.379-2.85c3.84,0,4.47,1.44,4.47,5.25v7.98l2.25,0.3l-0.15,1.05l-3.45-0.09l-2.82,0.09l-0.15-1.05
			l1.47-0.3v-8.58c0-1.56-0.72-2.25-1.92-2.25c-0.9,0-2.07,0.66-3.18,1.35l-0.9,0.57V20.219z"/>
		<path fill="#FFFFFF" d="M175.389,14.189c0,4.47-2.729,7.05-7.379,7.8c-3.99,0-6.69-3.09-6.69-7.17c0-4.5,2.73-7.05,7.38-7.83
			C172.689,6.99,175.389,10.109,175.389,14.189z M168.759,20.519c2.4,0,3.63-2.46,3.63-5.7c0-3.81-1.83-6.36-4.44-6.36
			c-2.43,0-3.63,2.46-3.63,5.73C164.319,17.609,166.089,20.519,168.759,20.519z"/>
		<path fill="#FFFFFF" d="M191.408,14.189c0,4.47-2.729,7.05-7.379,7.8c-3.99,0-6.69-3.09-6.69-7.17c0-4.5,2.73-7.05,7.38-7.83
			C188.708,6.99,191.408,10.109,191.408,14.189z M184.779,20.519c2.4,0,3.63-2.46,3.63-5.7c0-3.81-1.83-6.36-4.44-6.36
			c-2.43,0-3.63,2.46-3.63,5.73C180.339,17.609,182.109,20.519,184.779,20.519z"/>
		<path fill="#FFFFFF" d="M196.059,21.479l-3.45,0.09l-0.15-1.05l2.1-0.3V2.16l-2.1,0.06l-0.15-1.05l3.6-0.93l1.5-0.12v20.099
			l2.25,0.3l-0.15,1.05L196.059,21.479z"/>
		<path fill="#FFFFFF" d="M222.428,14.189c0,4.47-2.729,7.05-7.379,7.8c-3.99,0-6.69-3.09-6.69-7.17c0-4.5,2.73-7.05,7.38-7.83
			C219.728,6.99,222.428,10.109,222.428,14.189z M215.798,20.519c2.4,0,3.63-2.46,3.63-5.7c0-3.81-1.83-6.36-4.44-6.36
			c-2.43,0-3.63,2.46-3.63,5.73C211.358,17.609,213.128,20.519,215.798,20.519z"/>
		<path fill="#FFFFFF" d="M229.178,7.74h3.75v1.41h-3.75v11.07l3.45,0.21l-0.15,1.14l-4.65-0.09l-3.45,0.09l-0.15-1.05l2.1-0.3
			V9.149h-2.64V8.64l0.9-1.05h1.74v-0.3c0-1.8,0.57-2.97,1.65-4.2l2.52-2.85h3.78v2.4h-3.899l-0.57,0.81
			c-0.42,0.57-0.63,1.44-0.63,3.39V7.74z"/>
		<path fill="#FFFFFF" d="M259.026,0.51l0.3,5.4h-1.02l-1.68-3.9l-7.95-0.09v7.979l4.2-0.12l1.2-3.149h1.05l-0.3,3.75l0.3,4.05
			h-1.05l-1.2-3.15l-4.2-0.12v9l8.25-0.09l2.01-4.05h1.14l-1.05,5.549l-11.909-0.09l-4.14,0.09l-0.15-1.05l2.7-0.39V1.95l-2.7-0.39
			l0.15-1.05l4.14,0.09L259.026,0.51z"/>
		<path fill="#FFFFFF" d="M265.027,21.479l-3.45,0.09l-0.15-1.05l2.1-0.3V9.27l-2.1,0.18l-0.15-1.05l3.6-0.93l1.29-0.09l0.15,2.52
			l4.439-2.91c3.84,0,4.47,1.29,4.47,4.89v8.34l2.28,0.3l-0.15,1.05l-3.45-0.09l-2.88,0.09l-0.15-1.05l1.5-0.3v-8.58
			c0-1.56-0.69-2.25-1.98-2.25c-1.05,0-2.1,0.66-3.12,1.35l-0.9,0.6v8.88l1.65,0.3l-0.15,1.05L265.027,21.479z"/>
		<path fill="#FFFFFF" d="M289.027,8.819l1.62-1.83h1.8v2.43h-1.8l-0.99,0.48c0.18,0.45,0.3,0.93,0.3,1.44
			c0,2.55-1.77,4.35-5.85,5.4c-0.42,0-0.81,0-1.17-0.06l-1.62,1.86c0,0.63,0.45,1.05,1.17,1.05h5.49c2.73,0,3.93,1.26,3.93,3.09
			c0,2.459-3.12,4.86-7.65,6.209c-4.35,0-6.54-1.35-6.54-4.14v-0.51l3.27-2.52c-2.1-0.78-2.25-1.74-2.25-3.12v-0.18l3-2.07
			c-1.89-0.66-3.12-2.1-3.12-3.959c0-2.55,1.74-4.35,5.85-5.4C286.417,6.99,288.067,7.68,289.027,8.819z M282.067,21.989
			c-1.53,1.68-1.65,2.22-1.65,2.64c0,1.41,1.62,2.49,4.08,2.49s4.56-1.59,4.56-3.6c0-1.08-0.81-1.53-2.85-1.53H282.067z
			 M284.017,8.37c-1.62,0-2.55,1.26-2.55,3.18c0,1.44,0.63,3.78,3.09,3.78c1.62,0,2.55-1.11,2.55-2.85
			C287.107,10.919,286.477,8.37,284.017,8.37z"/>
		<path fill="#FFFFFF" d="M297.248,21.479l-3.449,0.09l-0.15-1.05l2.1-0.3V9.27l-2.1,0.18l-0.149-1.05l3.6-0.93l1.5-0.12v12.87
			l2.25,0.3l-0.15,1.05L297.248,21.479z M295.748,0.84l2.16-0.15l0.84,0.15l0.15,1.68l-0.33,1.44l-2.13,0.18l-0.81-0.18l-0.181-1.68
			L295.748,0.84z"/>
		<path fill="#FFFFFF" d="M305.647,21.479l-3.449,0.09l-0.15-1.05l2.1-0.3V9.27l-2.1,0.18l-0.149-1.05l3.6-0.93l1.29-0.09
			l0.149,2.52l4.44-2.91c3.84,0,4.47,1.29,4.47,4.89v8.34l2.279,0.3l-0.149,1.05l-3.45-0.09l-2.88,0.09l-0.149-1.05l1.5-0.3v-8.58
			c0-1.56-0.69-2.25-1.98-2.25c-1.05,0-2.1,0.66-3.12,1.35l-0.899,0.6v8.88l1.649,0.3l-0.149,1.05L305.647,21.479z"/>
		<path fill="#FFFFFF" d="M321.428,13.889c0,3.42,1.829,5.85,4.979,5.85c1.2,0,2.64-0.57,3.75-1.26l0.479,1.14
			c-1.439,0.99-3.33,1.83-5.25,2.37c-3.629,0-6.899-2.58-6.899-7.29c0-4.439,2.67-6.81,6.78-7.709c3.959,0,5.31,2.49,5.31,5.64v1.26
			H321.428z M327.457,12.39c0-2.31-0.45-3.9-2.76-3.9c-1.83,0-3,1.71-3.24,4.2L327.457,12.39z"/>
		<path fill="#FFFFFF" d="M335.528,13.889c0,3.42,1.829,5.85,4.979,5.85c1.2,0,2.64-0.57,3.75-1.26l0.479,1.14
			c-1.439,0.99-3.33,1.83-5.25,2.37c-3.63,0-6.899-2.58-6.899-7.29c0-4.439,2.67-6.81,6.78-7.709c3.959,0,5.31,2.49,5.31,5.64v1.26
			H335.528z M341.558,12.39c0-2.31-0.45-3.9-2.76-3.9c-1.83,0-3,1.71-3.24,4.2L341.558,12.39z"/>
		<path fill="#FFFFFF" d="M351.098,11.339l3.42-4.2h2.399v3h-2.22c-0.72,0.15-2.04,1.14-2.85,2.13l-0.6,0.72v7.14l3.149,0.3
			l-0.15,1.14l-4.35-0.09l-3.359,0.09l-0.15-1.05l2.1-0.3V9.27l-2.1,0.18l-0.149-1.05l3.6-0.93l1.2-0.09L351.098,11.339z"/>
		<path fill="#FFFFFF" d="M362.167,21.479l-3.449,0.09l-0.15-1.05l2.1-0.3V9.27l-2.1,0.18l-0.149-1.05l3.6-0.93l1.5-0.12v12.87
			l2.25,0.3l-0.15,1.05L362.167,21.479z M360.667,0.84l2.16-0.15l0.84,0.15l0.15,1.68l-0.33,1.44l-2.13,0.18l-0.81-0.18l-0.181-1.68
			L360.667,0.84z"/>
		<path fill="#FFFFFF" d="M370.566,21.479l-3.449,0.09l-0.15-1.05l2.1-0.3V9.27l-2.1,0.18l-0.149-1.05l3.6-0.93l1.29-0.09
			l0.149,2.52l4.44-2.91c3.84,0,4.47,1.29,4.47,4.89v8.34l2.279,0.3l-0.149,1.05l-3.45-0.09l-2.88,0.09l-0.149-1.05l1.499-0.3v-8.58
			c0-1.56-0.689-2.25-1.979-2.25c-1.05,0-2.1,0.66-3.12,1.35l-0.899,0.6v8.88l1.649,0.3l-0.149,1.05L370.566,21.479z"/>
		<path fill="#FFFFFF" d="M394.716,8.819l1.62-1.83h1.8v2.43h-1.8l-0.99,0.48c0.181,0.45,0.301,0.93,0.301,1.44
			c0,2.55-1.771,4.35-5.851,5.4c-0.42,0-0.81,0-1.17-0.06l-1.619,1.86c0,0.63,0.449,1.05,1.17,1.05h5.489
			c2.73,0,3.93,1.26,3.93,3.09c0,2.459-3.119,4.86-7.649,6.209c-4.35,0-6.54-1.35-6.54-4.14v-0.51l3.271-2.52
			c-2.101-0.78-2.25-1.74-2.25-3.12v-0.18l3-2.07c-1.891-0.66-3.12-2.1-3.12-3.959c0-2.55,1.74-4.35,5.85-5.4
			C392.106,6.99,393.756,7.68,394.716,8.819z M387.757,21.989c-1.53,1.68-1.65,2.22-1.65,2.64c0,1.41,1.62,2.49,4.08,2.49
			s4.56-1.59,4.56-3.6c0-1.08-0.81-1.53-2.85-1.53H387.757z M389.706,8.37c-1.62,0-2.55,1.26-2.55,3.18c0,1.44,0.63,3.78,3.09,3.78
			c1.62,0,2.55-1.11,2.55-2.85C392.796,10.919,392.166,8.37,389.706,8.37z"/>
	</g>
	<g display="none">
		<path display="inline" fill="#FFFFFF" d="M16.097-8.144l-1.88,0.06l-0.1-0.7l0.98-0.2v-5.721c0-1.04-0.48-1.5-1.28-1.5
			c-0.6,0-1.38,0.44-2.12,0.9l-0.601,0.38v5.941l1.101,0.2l-0.1,0.7l-1.9-0.06l-2.101,0.06l-0.1-0.7l1.2-0.2v-12.243l-0.72,0.12
			l-4.061-0.06v12.123l2.3,0.26l-0.1,0.7l-3.24-0.06l-3.361,0.06l-0.1-0.7l2.4-0.26v-12.123l-3,0.06l-0.92,2.5h-0.78v-3.541
			l5.741,0.04l4.921-0.04l2.141-0.24h0.68v6.481l2.921-1.9c2.561,0,2.98,0.96,2.98,3.501v5.321l1.5,0.2l-0.1,0.7L16.097-8.144z"/>
		<path display="inline" fill="#FFFFFF" d="M21.292-13.205c0,2.28,1.22,3.901,3.321,3.901c0.8,0,1.76-0.38,2.5-0.84l0.32,0.76
			c-0.96,0.66-2.22,1.22-3.5,1.581c-2.42,0-4.601-1.721-4.601-4.861c0-2.96,1.78-4.541,4.521-5.141c2.641,0,3.541,1.661,3.541,3.761
			v0.84H21.292z M25.313-14.205c0-1.541-0.3-2.601-1.841-2.601c-1.22,0-2,1.14-2.16,2.8L25.313-14.205z"/>
		<path display="inline" fill="#FFFFFF" d="M41.214-21.426l0.1-0.7l2.561,0.06l2.34-0.06l0.1,0.7l-1.701,0.26v8.162
			c0,2.601-1.06,4.341-5.041,5.261c-3.94,0-5.341-2.12-5.341-5.301v-8.122l-1.8-0.26l0.1-0.7l2.761,0.06l2.741-0.06l0.1,0.7
			l-1.701,0.26v8.422c0,2.48,1.061,3.901,3.341,3.901c2.081,0,3.241-1.4,3.241-3.961v-8.362L41.214-21.426z"/>
		<path display="inline" fill="#FFFFFF" d="M49.013-8.144l-2.3,0.06l-0.1-0.7l1.4-0.2v-7.301l-1.4,0.12l-0.1-0.7l2.4-0.62l0.86-0.06
			l0.1,1.68l2.96-1.94c2.561,0,2.981,0.86,2.981,3.261v5.561l1.52,0.2l-0.1,0.7l-2.3-0.06l-1.92,0.06l-0.1-0.7l1-0.2v-5.721
			c0-1.04-0.46-1.5-1.32-1.5c-0.7,0-1.4,0.44-2.081,0.9l-0.6,0.4v5.921l1.1,0.2l-0.1,0.7L49.013-8.144z"/>
		<path display="inline" fill="#FFFFFF" d="M60.473-8.144l-2.3,0.06l-0.1-0.7l1.4-0.2v-7.301l-1.4,0.12l-0.1-0.7l2.4-0.62l1-0.08
			v8.582l1.5,0.2l-0.1,0.7L60.473-8.144z M59.473-21.906l1.44-0.1l0.561,0.1l0.1,1.12l-0.22,0.96l-1.42,0.12l-0.54-0.12l-0.12-1.12
			L59.473-21.906z"/>
		<path display="inline" fill="#FFFFFF" d="M68.493-9.384l2.42-7.242l-0.92-0.2l0.1-0.7l1.76,0.06l1.66-0.06l0.1,0.7l-1.28,0.2
			l-3.281,8.222l-1.46,0.601l-3.48-8.822l-1.24-0.2l0.1-0.7l2.3,0.06l2.101-0.06l0.1,0.7l-1.32,0.2l2.18,5.861L68.493-9.384z"/>
		<path display="inline" fill="#FFFFFF" d="M75.573-13.205c0,2.28,1.22,3.901,3.321,3.901c0.8,0,1.76-0.38,2.5-0.84l0.32,0.76
			c-0.96,0.66-2.22,1.22-3.5,1.581c-2.42,0-4.601-1.721-4.601-4.861c0-2.96,1.78-4.541,4.521-5.141c2.641,0,3.541,1.661,3.541,3.761
			v0.84H75.573z M79.594-14.205c0-1.541-0.3-2.601-1.841-2.601c-1.22,0-2,1.14-2.16,2.8L79.594-14.205z"/>
		<path display="inline" fill="#FFFFFF" d="M86.153-14.905l2.28-2.801h1.601v2h-1.48c-0.48,0.1-1.36,0.76-1.9,1.42l-0.4,0.48v4.761
			l2.101,0.2l-0.1,0.76l-2.901-0.06l-2.24,0.06l-0.1-0.7l1.4-0.2v-7.301l-1.4,0.12l-0.1-0.7l2.4-0.62l0.8-0.06L86.153-14.905z"/>
		<path display="inline" fill="#FFFFFF" d="M96.333-16.385c-0.2-0.12-0.8-0.44-1.521-0.44c-0.78,0-1.521,0.42-1.521,1.18
			c0,0.64,0.5,1.04,1.4,1.5l1.541,0.78c1.34,0.68,1.88,1.44,1.88,2.581c0,1.8-1.46,2.48-3.761,2.981c-1.22,0-2.521-0.601-3.041-0.9
			l-0.38-2.261h1.28l0.68,1.661c0.42,0.28,1,0.5,1.64,0.5c1.061,0,1.601-0.68,1.601-1.521c0-0.78-0.42-1.12-1.46-1.66l-1.58-0.82
			c-0.86-0.44-1.681-1.2-1.681-2.32c0-1.4,1.3-2.181,3.621-2.681c1.08,0,2.24,0.48,2.82,0.9v2h-1.06L96.333-16.385z"/>
		<path display="inline" fill="#FFFFFF" d="M101.853-8.144l-2.3,0.06l-0.1-0.7l1.4-0.2v-7.301l-1.4,0.12l-0.1-0.7l2.4-0.62l1-0.08
			v8.582l1.5,0.2l-0.1,0.7L101.853-8.144z M100.853-21.906l1.44-0.1l0.561,0.1l0.1,1.12l-0.22,0.96l-1.42,0.12l-0.54-0.12
			l-0.12-1.12L100.853-21.906z"/>
		<path display="inline" fill="#FFFFFF" d="M111.773-3.402v-2h1.721l1.98-3.021l-0.8,0.24l-3.361-8.422h-3.021v6.102
			c0,0.58,0.22,1.2,1.06,1.2c0.58,0,1.2-0.28,1.76-0.56l0.34,0.68l-2.521,1.38c-2.241,0-2.541-0.8-2.541-2.601v-5.961h-1.94v-0.34
			l0.7-0.7h1.3v-1.3l1.3-1.3h0.52v2.5h6.301l0.1,0.68l-1.32,0.2l2.22,5.861l0.16,1.38l2.48-7.242l-0.92-0.2l0.1-0.7l1.76,0.06
			l1.66-0.06l0.1,0.7l-1.28,0.2l-3.241,8.182l-2.24,5.041H111.773z"/>
		<path display="inline" fill="#FFFFFF" d="M134.093-13.004c0,2.98-1.82,4.701-4.921,5.201c-2.661,0-4.461-2.061-4.461-4.781
			c0-3,1.82-4.701,4.921-5.221C132.293-17.806,134.093-15.725,134.093-13.004z M129.672-8.784c1.601,0,2.42-1.64,2.42-3.801
			c0-2.541-1.22-4.241-2.96-4.241c-1.62,0-2.42,1.64-2.42,3.821C126.712-10.724,127.892-8.784,129.672-8.784z"/>
		<path display="inline" fill="#FFFFFF" d="M138.592-17.306h2.501v0.94h-2.501v7.381l2.301,0.14l-0.1,0.76l-3.101-0.06l-2.3,0.06
			l-0.1-0.7l1.4-0.2v-7.381h-1.76v-0.34l0.6-0.7h1.16v-0.2c0-1.2,0.38-1.98,1.101-2.801l1.68-1.9h2.521v1.601h-2.601l-0.38,0.54
			c-0.28,0.38-0.42,0.96-0.42,2.26V-17.306z"/>
		<path display="inline" fill="#FFFFFF" d="M156.393-8.083l-3.24-0.06l-3.361,0.06l-0.1-0.7l2.4-0.26v-12.123l-3,0.04l-0.92,2.541
			h-0.78v-3.541l5.741,0.06l5.761-0.06v3.541h-0.78l-0.92-2.541l-3-0.04v12.123l2.3,0.26L156.393-8.083z"/>
		<path display="inline" fill="#FFFFFF" d="M159.952-13.205c0,2.28,1.22,3.901,3.321,3.901c0.8,0,1.76-0.38,2.5-0.84l0.32,0.76
			c-0.96,0.66-2.22,1.22-3.5,1.581c-2.42,0-4.601-1.721-4.601-4.861c0-2.96,1.78-4.541,4.521-5.141c2.641,0,3.541,1.661,3.541,3.761
			v0.84H159.952z M163.973-14.205c0-1.541-0.3-2.601-1.841-2.601c-1.22,0-2,1.14-2.16,2.8L163.973-14.205z"/>
		<path display="inline" fill="#FFFFFF" d="M170.612-8.784l-0.1,0.7l-1.561-0.06l-2.06,0.06l-0.1-0.7l1.4-0.2l2.96-3.641
			l-2.901-3.981l-1.24-0.2l0.1-0.72l2.301,0.06l1.9-0.06l0.1,0.72l-0.78,0.2l1.48,2.221l0.16,0.52l1.9-2.741l-0.98-0.2l0.1-0.72
			l1.56,0.06l2.061-0.06l0.1,0.72l-1.44,0.2l-2.641,3.201l3.141,4.421l1.24,0.2l-0.1,0.7l-2.3-0.06l-1.9,0.06l-0.1-0.7l0.82-0.2
			l-1.78-2.581l-0.16-0.46l-2.121,3.041L170.612-8.784z"/>
		<path display="inline" fill="#FFFFFF" d="M181.952-17.806c2.521,0,3.161,0.64,3.161,3.181v3.921c0,0.86,0.14,1.18,0.34,1.5h1
			l0.08,0.7l-2.581,0.5l-0.62-1.541l-2.381,1.741c-1.72,0-2.94-0.96-2.94-2.561c0-0.72,0.26-1.241,0.7-1.841l4.501-1.5v-1
			c0-1.2-0.1-1.92-1.18-1.92c-0.54,0-1.2,0.18-1.641,0.36l-0.34,1.58h-1.72v-1.52L181.952-17.806z M183.212-12.904l-2.901,1.2
			c-0.3,0.3-0.4,0.7-0.4,1.12c0,1.02,0.58,1.38,1.16,1.38c0.56,0,1.041-0.34,1.3-0.52l0.84-0.581V-12.904z"/>
		<path display="inline" fill="#FFFFFF" d="M192.732-16.385c-0.2-0.12-0.8-0.44-1.521-0.44c-0.78,0-1.521,0.42-1.521,1.18
			c0,0.64,0.5,1.04,1.4,1.5l1.541,0.78c1.34,0.68,1.88,1.44,1.88,2.581c0,1.8-1.46,2.48-3.761,2.981c-1.22,0-2.521-0.601-3.041-0.9
			l-0.38-2.261h1.28l0.68,1.661c0.42,0.28,1,0.5,1.64,0.5c1.061,0,1.601-0.68,1.601-1.521c0-0.78-0.42-1.12-1.46-1.66l-1.58-0.82
			c-0.86-0.44-1.681-1.2-1.681-2.32c0-1.4,1.3-2.181,3.621-2.681c1.08,0,2.24,0.48,2.82,0.9v2h-1.06L192.732-16.385z"/>
		<path display="inline" fill="#FFFFFF" d="M204.591-17.806c2.521,0,3.161,0.64,3.161,3.181v3.921c0,0.86,0.14,1.18,0.34,1.5h1
			l0.08,0.7l-2.581,0.5l-0.62-1.541l-2.381,1.741c-1.72,0-2.94-0.96-2.94-2.561c0-0.72,0.26-1.241,0.7-1.841l4.501-1.5v-1
			c0-1.2-0.1-1.92-1.18-1.92c-0.54,0-1.2,0.18-1.641,0.36l-0.34,1.58h-1.72v-1.52L204.591-17.806z M205.852-12.904l-2.901,1.2
			c-0.3,0.3-0.4,0.7-0.4,1.12c0,1.02,0.58,1.38,1.16,1.38c0.56,0,1.041-0.34,1.3-0.52l0.84-0.581V-12.904z"/>
		<path display="inline" fill="#FFFFFF" d="M209.071-16.365v-0.34l0.7-0.7h1.3v-1.3l1.3-1.3h0.52v2.74h3.021v0.9h-3v5.861
			c0,0.58,0.22,1.2,1.06,1.2c0.58,0,1.021-0.2,1.581-0.48l0.34,0.68l-2.34,1.3c-2.241,0-2.541-0.8-2.541-2.601v-5.961H209.071z"/>
		<path display="inline" fill="#FFFFFF" d="M224.351-12.785l-1.3,3.741l1.74,0.26l-0.1,0.7l-2.4-0.06l-2.14,0.06l-0.1-0.7l1.56-0.22
			l4.961-12.962l1.201-0.34l5.221,13.303l1.561,0.22l-0.1,0.7l-2.761-0.06l-2.64,0.06l-0.1-0.7l1.7-0.26l-1.36-3.741H224.351z
			 M227.012-19.006l-0.14-1.08l-2.201,6.361h4.261L227.012-19.006z"/>
		<path display="inline" fill="#FFFFFF" d="M243.052-10.704c0,0.86,0.1,1.18,0.24,1.5h1l0.08,0.7l-2.581,0.5l-0.56-1.621l-2.9,1.821
			c-2.641,0-3.081-0.94-3.081-3.261v-5.221l-1.4,0.1l-0.1-0.78l2.4-0.52l1-0.08v6.661c0,1.041,0.44,1.5,1.42,1.5
			c0.62,0,1.42-0.5,2.181-1l0.4-0.26v-5.621l-1.2,0.1l-0.1-0.78l2.201-0.52l1-0.08V-10.704z"/>
		<path display="inline" fill="#FFFFFF" d="M250.671-16.385c-0.2-0.12-0.8-0.44-1.521-0.44c-0.78,0-1.521,0.42-1.521,1.18
			c0,0.64,0.5,1.04,1.4,1.5l1.541,0.78c1.34,0.68,1.88,1.44,1.88,2.581c0,1.8-1.46,2.48-3.761,2.981c-1.22,0-2.521-0.601-3.041-0.9
			l-0.38-2.261h1.28l0.68,1.661c0.42,0.28,1,0.5,1.64,0.5c1.061,0,1.601-0.68,1.601-1.521c0-0.78-0.42-1.12-1.46-1.66l-1.58-0.82
			c-0.86-0.44-1.681-1.2-1.681-2.32c0-1.4,1.3-2.181,3.621-2.681c1.08,0,2.24,0.48,2.82,0.9v2h-1.06L250.671-16.385z"/>
		<path display="inline" fill="#FFFFFF" d="M253.09-16.365v-0.34l0.7-0.7h1.3v-1.3l1.3-1.3h0.52v2.74h3.021v0.9h-3v5.861
			c0,0.58,0.22,1.2,1.06,1.2c0.58,0,1.021-0.2,1.581-0.48l0.34,0.68l-2.34,1.3c-2.241,0-2.541-0.8-2.541-2.601v-5.961H253.09z"/>
		<path display="inline" fill="#FFFFFF" d="M263.47-8.144l-2.3,0.06l-0.1-0.7l1.4-0.2v-7.301l-1.4,0.12l-0.1-0.7l2.4-0.62l1-0.08
			v8.582l1.5,0.2l-0.1,0.7L263.47-8.144z M262.47-21.906l1.44-0.1l0.561,0.1l0.1,1.12l-0.22,0.96l-1.42,0.12l-0.54-0.12l-0.12-1.12
			L262.47-21.906z"/>
		<path display="inline" fill="#FFFFFF" d="M269.17-8.144l-2.3,0.06l-0.1-0.7l1.4-0.2v-7.301l-1.4,0.12l-0.1-0.7l2.4-0.62l0.86-0.06
			l0.1,1.68l2.96-1.94c2.561,0,2.981,0.86,2.981,3.261v5.561l1.52,0.2l-0.1,0.7l-2.3-0.06l-1.92,0.06l-0.1-0.7l1-0.2v-5.721
			c0-1.04-0.46-1.5-1.32-1.5c-0.7,0-1.4,0.44-2.081,0.9l-0.6,0.4v5.921l1.1,0.2l-0.1,0.7L269.17-8.144z"/>
	</g>
</g>
</svg>
