<?xml version="1.0" encoding="utf-8"?>
<!-- Generator: Adobe Illustrator 16.0.0, SVG Export Plug-In . SVG Version: 6.00 Build 0)  -->
<!DOCTYPE svg PUBLIC "-//W3C//DTD SVG 1.1//EN" "http://www.w3.org/Graphics/SVG/1.1/DTD/svg11.dtd">
<svg version="1.1" id="Layer_1" xmlns="http://www.w3.org/2000/svg" xmlns:xlink="http://www.w3.org/1999/xlink" x="0px" y="0px"
	 width="376.554px" height="85.607px" viewBox="0 0 376.554 85.607" enable-background="new 0 0 376.554 85.607"
	 xml:space="preserve">
<g>
	<g>
		<path fill="#BF5700" d="M71.94,17.074l-1.88,0.06l-0.101-0.7l0.979-0.2v-5.721c0-1.04-0.479-1.5-1.279-1.5
			c-0.601,0-1.381,0.44-2.121,0.9l-0.6,0.38v5.941l1.1,0.2l-0.1,0.7l-1.9-0.06l-2.101,0.06l-0.101-0.7l1.201-0.2V3.991l-0.721,0.12
			l-4.061-0.06v12.123l2.301,0.26l-0.101,0.7l-3.241-0.06l-3.359,0.06l-0.101-0.7l2.4-0.26V4.051l-3.001,0.06l-0.92,2.5h-0.779
			V3.071l5.74,0.04l4.922-0.04l2.141-0.24h0.68v6.481l2.92-1.9c2.561,0,2.98,0.96,2.98,3.501v5.321l1.501,0.2l-0.101,0.7
			L71.94,17.074z"/>
		<path fill="#BF5700" d="M77.137,12.013c0,2.28,1.22,3.901,3.32,3.901c0.8,0,1.76-0.38,2.5-0.84l0.32,0.76
			c-0.96,0.66-2.221,1.22-3.5,1.581c-2.421,0-4.602-1.721-4.602-4.861c0-2.96,1.78-4.541,4.521-5.141c2.641,0,3.54,1.661,3.54,3.761
			v0.84H77.137z M81.157,11.013c0-1.541-0.3-2.601-1.841-2.601c-1.221,0-2,1.14-2.16,2.8L81.157,11.013z"/>
		<path fill="#BF5700" d="M97.058,3.792l0.101-0.7l2.561,0.06l2.34-0.06l0.1,0.7l-1.7,0.26v8.162c0,2.601-1.06,4.341-5.041,5.261
			c-3.94,0-5.341-2.12-5.341-5.301V4.051l-1.801-0.26l0.1-0.7l2.762,0.06l2.74-0.06l0.1,0.7l-1.7,0.26v8.422
			c0,2.48,1.061,3.901,3.341,3.901c2.08,0,3.24-1.4,3.24-3.961V4.051L97.058,3.792z"/>
		<path fill="#BF5700" d="M104.856,17.074l-2.3,0.06l-0.101-0.7l1.4-0.2V8.933l-1.4,0.12l-0.101-0.7l2.4-0.62l0.861-0.06l0.1,1.68
			l2.961-1.94c2.561,0,2.98,0.86,2.98,3.261v5.561l1.52,0.2l-0.1,0.7l-2.301-0.06l-1.92,0.06l-0.1-0.7l1-0.2v-5.721
			c0-1.04-0.461-1.5-1.32-1.5c-0.7,0-1.4,0.44-2.08,0.9l-0.601,0.4v5.921l1.101,0.2l-0.101,0.7L104.856,17.074z"/>
		<path fill="#BF5700" d="M116.316,17.074l-2.301,0.06l-0.1-0.7l1.4-0.2V8.933l-1.4,0.12l-0.1-0.7l2.4-0.62l1-0.08v8.582l1.5,0.2
			l-0.1,0.7L116.316,17.074z M115.316,3.312l1.439-0.1l0.561,0.1l0.1,1.12l-0.219,0.96l-1.421,0.12l-0.54-0.12l-0.121-1.12
			L115.316,3.312z"/>
		<path fill="#BF5700" d="M124.337,15.834l2.421-7.242l-0.92-0.2l0.1-0.7l1.76,0.06l1.66-0.06l0.101,0.7l-1.28,0.2l-3.281,8.222
			l-1.46,0.601l-3.48-8.822l-1.24-0.2l0.101-0.7l2.299,0.06l2.102-0.06l0.1,0.7l-1.32,0.2l2.181,5.861L124.337,15.834z"/>
		<path fill="#BF5700" d="M131.416,12.013c0,2.28,1.221,3.901,3.321,3.901c0.8,0,1.761-0.38,2.501-0.84l0.319,0.76
			c-0.96,0.66-2.22,1.22-3.501,1.581c-2.42,0-4.601-1.721-4.601-4.861c0-2.96,1.78-4.541,4.521-5.141
			c2.641,0,3.541,1.661,3.541,3.761v0.84H131.416z M135.438,11.013c0-1.541-0.301-2.601-1.841-2.601c-1.22,0-2,1.14-2.16,2.8
			L135.438,11.013z"/>
		<path fill="#BF5700" d="M141.996,10.313l2.281-2.801h1.6v2h-1.48c-0.479,0.1-1.359,0.76-1.9,1.42l-0.399,0.48v4.761l2.101,0.2
			l-0.1,0.76l-2.901-0.06l-2.24,0.06l-0.101-0.7l1.4-0.2V8.933l-1.4,0.12l-0.1-0.7l2.4-0.62l0.801-0.06L141.996,10.313z"/>
		<path fill="#BF5700" d="M152.177,8.833c-0.2-0.12-0.8-0.44-1.521-0.44c-0.78,0-1.521,0.42-1.521,1.18c0,0.64,0.502,1.04,1.4,1.5
			l1.541,0.78c1.341,0.68,1.881,1.44,1.881,2.581c0,1.8-1.461,2.48-3.761,2.981c-1.22,0-2.521-0.601-3.041-0.9l-0.38-2.261h1.28
			l0.681,1.661c0.42,0.28,1,0.5,1.64,0.5c1.061,0,1.601-0.68,1.601-1.521c0-0.78-0.42-1.12-1.461-1.66l-1.58-0.82
			c-0.859-0.44-1.68-1.2-1.68-2.32c0-1.4,1.3-2.181,3.621-2.681c1.08,0,2.24,0.48,2.82,0.9v2h-1.061L152.177,8.833z"/>
		<path fill="#BF5700" d="M157.696,17.074l-2.3,0.06l-0.101-0.7l1.4-0.2V8.933l-1.4,0.12l-0.101-0.7l2.4-0.62l1.001-0.08v8.582
			l1.5,0.2l-0.1,0.7L157.696,17.074z M156.696,3.312l1.44-0.1l0.561,0.1l0.1,1.12l-0.221,0.96l-1.42,0.12l-0.541-0.12l-0.119-1.12
			L156.696,3.312z"/>
		<path fill="#BF5700" d="M167.617,21.815v-2h1.721l1.98-3.021l-0.801,0.24l-3.361-8.422h-3.02v6.102c0,0.58,0.22,1.2,1.06,1.2
			c0.58,0,1.2-0.28,1.761-0.56l0.34,0.68l-2.521,1.38c-2.241,0-2.54-0.8-2.54-2.601V8.853h-1.941v-0.34l0.701-0.7h1.3v-1.3l1.3-1.3
			h0.52v2.5h6.303l0.1,0.68l-1.32,0.2l2.221,5.861l0.16,1.38l2.48-7.242l-0.92-0.2l0.1-0.7l1.76,0.06l1.66-0.06l0.101,0.7l-1.28,0.2
			l-3.24,8.182l-2.24,5.041H167.617z"/>
		<path fill="#BF5700" d="M189.938,12.213c0,2.98-1.82,4.701-4.922,5.201c-2.66,0-4.461-2.061-4.461-4.781
			c0-3,1.82-4.701,4.922-5.221C188.137,7.412,189.938,9.493,189.938,12.213z M185.516,16.434c1.602,0,2.421-1.64,2.421-3.801
			c0-2.541-1.22-4.241-2.96-4.241c-1.621,0-2.421,1.64-2.421,3.821C182.556,14.494,183.736,16.434,185.516,16.434z"/>
		<path fill="#BF5700" d="M194.436,7.912h2.501v0.94h-2.501v7.381l2.301,0.14l-0.1,0.76l-3.102-0.06l-2.301,0.06l-0.1-0.7l1.4-0.2
			V8.853h-1.76v-0.34l0.6-0.7h1.16v-0.2c0-1.2,0.381-1.98,1.1-2.801l1.682-1.9h2.52v1.601h-2.6l-0.381,0.54
			c-0.279,0.38-0.42,0.96-0.42,2.26V7.912z"/>
		<path fill="#BF5700" d="M212.236,17.134l-3.24-0.06l-3.361,0.06l-0.1-0.7l2.4-0.26V4.051l-3,0.04l-0.922,2.541h-0.779V3.091
			l5.742,0.06l5.761-0.06v3.541h-0.78l-0.92-2.541l-3.002-0.04v12.123l2.301,0.26L212.236,17.134z"/>
		<path fill="#BF5700" d="M215.795,12.013c0,2.28,1.221,3.901,3.32,3.901c0.801,0,1.762-0.38,2.502-0.84l0.319,0.76
			c-0.96,0.66-2.22,1.22-3.501,1.581c-2.42,0-4.6-1.721-4.6-4.861c0-2.96,1.779-4.541,4.52-5.141c2.641,0,3.541,1.661,3.541,3.761
			v0.84H215.795z M219.816,11.013c0-1.541-0.301-2.601-1.841-2.601c-1.22,0-2,1.14-2.161,2.8L219.816,11.013z"/>
		<path fill="#BF5700" d="M226.455,16.434l-0.1,0.7l-1.561-0.06l-2.061,0.06l-0.1-0.7l1.4-0.2l2.961-3.641l-2.901-3.981l-1.24-0.2
			l0.101-0.72l2.301,0.06l1.9-0.06l0.1,0.72l-0.78,0.2l1.479,2.221l0.16,0.52l1.9-2.741l-0.98-0.2l0.102-0.72l1.56,0.06l2.061-0.06
			l0.101,0.72l-1.441,0.2l-2.641,3.201l3.141,4.421l1.24,0.2l-0.1,0.7l-2.301-0.06l-1.9,0.06l-0.1-0.7l0.82-0.2l-1.78-2.581
			l-0.161-0.46l-2.119,3.041L226.455,16.434z"/>
		<path fill="#BF5700" d="M237.795,7.412c2.521,0,3.161,0.64,3.161,3.181v3.921c0,0.86,0.14,1.18,0.34,1.5h1.001l0.08,0.7
			l-2.581,0.5l-0.62-1.541l-2.381,1.741c-1.721,0-2.94-0.96-2.94-2.561c0-0.72,0.261-1.241,0.7-1.841l4.501-1.5v-1
			c0-1.2-0.101-1.92-1.181-1.92c-0.539,0-1.199,0.18-1.641,0.36l-0.34,1.58h-1.72v-1.52L237.795,7.412z M239.056,12.313l-2.901,1.2
			c-0.299,0.3-0.399,0.7-0.399,1.12c0,1.02,0.581,1.38,1.16,1.38c0.56,0,1.04-0.34,1.3-0.52l0.841-0.581V12.313z"/>
		<path fill="#BF5700" d="M248.576,8.833c-0.201-0.12-0.801-0.44-1.521-0.44c-0.779,0-1.52,0.42-1.52,1.18c0,0.64,0.5,1.04,1.4,1.5
			l1.54,0.78c1.341,0.68,1.88,1.44,1.88,2.581c0,1.8-1.46,2.48-3.76,2.981c-1.221,0-2.521-0.601-3.041-0.9l-0.381-2.261h1.281
			l0.68,1.661c0.42,0.28,1,0.5,1.641,0.5c1.061,0,1.6-0.68,1.6-1.521c0-0.78-0.42-1.12-1.46-1.66l-1.579-0.82
			c-0.861-0.44-1.682-1.2-1.682-2.32c0-1.4,1.301-2.181,3.621-2.681c1.08,0,2.24,0.48,2.82,0.9v2h-1.061L248.576,8.833z"/>
		<path fill="#BF5700" d="M260.436,7.412c2.52,0,3.16,0.64,3.16,3.181v3.921c0,0.86,0.141,1.18,0.34,1.5h1l0.08,0.7l-2.58,0.5
			l-0.621-1.541l-2.381,1.741c-1.719,0-2.939-0.96-2.939-2.561c0-0.72,0.26-1.241,0.7-1.841l4.501-1.5v-1c0-1.2-0.1-1.92-1.18-1.92
			c-0.541,0-1.201,0.18-1.641,0.36l-0.34,1.58h-1.721v-1.52L260.436,7.412z M261.695,12.313l-2.9,1.2c-0.301,0.3-0.4,0.7-0.4,1.12
			c0,1.02,0.58,1.38,1.16,1.38c0.561,0,1.041-0.34,1.301-0.52l0.84-0.581V12.313z"/>
		<path fill="#BF5700" d="M264.914,8.853v-0.34l0.701-0.7h1.3v-1.3l1.3-1.3h0.52v2.74h3.021v0.9h-3v5.861c0,0.58,0.22,1.2,1.059,1.2
			c0.581,0,1.021-0.2,1.582-0.48l0.34,0.68l-2.341,1.3c-2.241,0-2.54-0.8-2.54-2.601V8.853H264.914z"/>
		<path fill="#BF5700" d="M280.195,12.433l-1.301,3.741l1.74,0.26l-0.1,0.7l-2.4-0.06l-2.141,0.06l-0.1-0.7l1.56-0.22l4.961-12.962
			l1.2-0.34l5.221,13.303l1.561,0.22l-0.1,0.7l-2.762-0.06l-2.639,0.06l-0.101-0.7l1.7-0.26l-1.361-3.741H280.195z M282.855,6.212
			l-0.141-1.08l-2.201,6.361h4.262L282.855,6.212z"/>
		<path fill="#BF5700" d="M298.896,14.514c0,0.86,0.101,1.18,0.239,1.5h1l0.081,0.7l-2.581,0.5l-0.56-1.621l-2.9,1.821
			c-2.641,0-3.081-0.94-3.081-3.261V8.933l-1.4,0.1l-0.1-0.78l2.4-0.52l1-0.08v6.661c0,1.041,0.439,1.5,1.42,1.5
			c0.621,0,1.422-0.5,2.182-1l0.399-0.26V8.933l-1.2,0.1l-0.1-0.78l2.2-0.52l1-0.08V14.514z"/>
		<path fill="#BF5700" d="M306.516,8.833c-0.201-0.12-0.801-0.44-1.521-0.44c-0.779,0-1.52,0.42-1.52,1.18c0,0.64,0.5,1.04,1.4,1.5
			l1.54,0.78c1.341,0.68,1.88,1.44,1.88,2.581c0,1.8-1.459,2.48-3.76,2.981c-1.221,0-2.521-0.601-3.041-0.9l-0.381-2.261h1.281
			l0.68,1.661c0.42,0.28,1,0.5,1.641,0.5c1.061,0,1.6-0.68,1.6-1.521c0-0.78-0.42-1.12-1.46-1.66l-1.58-0.82
			c-0.86-0.44-1.681-1.2-1.681-2.32c0-1.4,1.301-2.181,3.621-2.681c1.08,0,2.24,0.48,2.82,0.9v2h-1.061L306.516,8.833z"/>
		<path fill="#BF5700" d="M308.934,8.853v-0.34l0.701-0.7h1.299v-1.3l1.301-1.3h0.521v2.74h3.021v0.9h-3v5.861
			c0,0.58,0.22,1.2,1.061,1.2c0.579,0,1.02-0.2,1.58-0.48l0.34,0.68l-2.341,1.3c-2.241,0-2.54-0.8-2.54-2.601V8.853H308.934z"/>
		<path fill="#BF5700" d="M319.314,17.074l-2.301,0.06l-0.1-0.7l1.4-0.2V8.933l-1.4,0.12l-0.101-0.7l2.4-0.62l1.001-0.08v8.582
			l1.5,0.2l-0.1,0.7L319.314,17.074z M318.314,3.312l1.439-0.1l0.561,0.1l0.1,1.12l-0.22,0.96l-1.421,0.12l-0.539-0.12l-0.121-1.12
			L318.314,3.312z"/>
		<path fill="#BF5700" d="M325.014,17.074l-2.301,0.06l-0.1-0.7l1.4-0.2V8.933l-1.4,0.12l-0.1-0.7l2.4-0.62l0.859-0.06l0.101,1.68
			l2.96-1.94c2.561,0,2.98,0.86,2.98,3.261v5.561l1.521,0.2l-0.102,0.7l-2.299-0.06l-1.922,0.06l-0.1-0.7l1.001-0.2v-5.721
			c0-1.04-0.46-1.5-1.32-1.5c-0.7,0-1.4,0.44-2.081,0.9l-0.6,0.4v5.921l1.1,0.2l-0.1,0.7L325.014,17.074z"/>
	</g>
</g>
<g>
	<path fill="#333F48" d="M76.795,35.808c0,6.63-3.39,10.26-10.799,11.49c-6.061,0-10.2-4.53-10.2-10.59
		c0-6.629,3.39-10.259,10.8-11.489C72.655,25.218,76.795,29.748,76.795,35.808z M66.746,45.647c4.619,0,6.6-3.99,6.6-8.85
		c0-4.38-1.95-9.93-7.47-9.93c-4.62,0-6.63,3.96-6.63,8.85C59.246,40.188,61.256,45.647,66.746,45.647z"/>
	<path fill="#333F48" d="M83.246,46.577v5.76l3.15,0.3l-0.15,1.05l-4.35-0.09l-3.45,0.09l-0.149-1.05l2.1-0.3V34.458l-2.1,0.18
		l-0.15-1.02l3.6-0.93l1.289-0.09l0.15,2.49l3.84-2.88c3.87,0,6.12,2.64,6.12,6.99c0,5.1-3.06,7.41-7.53,8.01
		C84.775,47.208,83.936,46.967,83.246,46.577z M87.025,34.458c-0.81,0-1.77,0.54-2.879,1.38l-0.9,0.69v7.53
		c0.689,1.05,1.92,1.65,3.27,1.65c2.16,0,3.631-2.13,3.631-5.58C90.146,36.618,88.826,34.458,87.025,34.458z"/>
	<path fill="#333F48" d="M98.035,39.107c0,3.42,1.83,5.85,4.98,5.85c1.199,0,2.64-0.57,3.75-1.26l0.479,1.14
		c-1.439,0.99-3.329,1.83-5.249,2.37c-3.631,0-6.9-2.58-6.9-7.29c0-4.44,2.67-6.81,6.779-7.709c3.961,0,5.311,2.49,5.311,5.64v1.26
		H98.035z M104.065,37.608c0-2.31-0.45-3.9-2.76-3.9c-1.83,0-3,1.71-3.239,4.2L104.065,37.608z"/>
	<path fill="#333F48" d="M113.605,36.558l3.42-4.2h2.4v3h-2.221c-0.72,0.15-2.039,1.14-2.85,2.13l-0.6,0.72v7.14l3.149,0.3
		l-0.149,1.14l-4.351-0.09l-3.359,0.09l-0.15-1.05l2.101-0.3v-10.95l-2.101,0.18l-0.149-1.05l3.6-0.93l1.199-0.09L113.605,36.558z"
		/>
	<path fill="#333F48" d="M126.385,32.208c3.78,0,4.74,0.96,4.74,4.77v5.88c0,1.29,0.211,1.77,0.51,2.25h1.5l0.12,1.05l-3.87,0.75
		l-0.93-2.31l-3.57,2.61c-2.579,0-4.409-1.44-4.409-3.84c0-1.08,0.39-1.86,1.05-2.76l6.75-2.25v-1.5c0-1.8-0.15-2.88-1.77-2.88
		c-0.811,0-1.801,0.27-2.461,0.54l-0.51,2.37h-2.58v-2.28L126.385,32.208z M128.275,39.558l-4.35,1.8c-0.45,0.45-0.6,1.05-0.6,1.68
		c0,1.53,0.869,2.07,1.739,2.07c0.84,0,1.56-0.51,1.95-0.78l1.26-0.87V39.558z"/>
	<path fill="#333F48" d="M133.406,34.368v-0.51l1.05-1.05h1.95v-1.95l1.949-1.95h0.779v4.11h4.531v1.35h-4.5v8.79
		c0,0.87,0.33,1.8,1.59,1.8c0.869,0,1.529-0.3,2.369-0.72l0.51,1.02l-3.51,1.95c-3.359,0-3.809-1.2-3.809-3.9v-8.94H133.406z"/>
	<path fill="#333F48" d="M148.525,46.697l-3.45,0.09l-0.149-1.05l2.1-0.3v-10.95l-2.1,0.18l-0.15-1.05l3.6-0.93l1.5-0.12v12.87
		l2.25,0.3l-0.15,1.05L148.525,46.697z M147.025,26.058l2.16-0.15l0.84,0.15l0.15,1.68l-0.33,1.44l-2.131,0.18l-0.81-0.18
		l-0.18-1.68L147.025,26.058z"/>
	<path fill="#333F48" d="M167.396,39.408c0,4.47-2.729,7.05-7.38,7.8c-3.99,0-6.689-3.09-6.689-7.17c0-4.5,2.729-7.05,7.379-7.83
		C164.695,32.208,167.396,35.328,167.396,39.408z M160.766,45.737c2.4,0,3.63-2.46,3.63-5.7c0-3.81-1.83-6.36-4.44-6.36
		c-2.43,0-3.629,2.46-3.629,5.73C156.326,42.828,158.096,45.737,160.766,45.737z"/>
	<path fill="#333F48" d="M172.645,46.697l-3.449,0.09l-0.15-1.05l2.1-0.3v-10.95l-2.1,0.18l-0.15-1.05l3.601-0.93l1.29-0.09
		l0.15,2.52l4.439-2.91c3.84,0,4.47,1.29,4.47,4.89v8.34l2.28,0.3l-0.15,1.05l-3.45-0.09l-2.88,0.09l-0.15-1.05l1.5-0.3v-8.58
		c0-1.56-0.689-2.25-1.98-2.25c-1.049,0-2.099,0.66-3.119,1.35l-0.899,0.6v8.88l1.649,0.3l-0.15,1.05L172.645,46.697z"/>
	<path fill="#333F48" d="M194.336,34.338c-0.301-0.18-1.201-0.66-2.281-0.66c-1.17,0-2.279,0.63-2.279,1.77
		c0,0.96,0.75,1.56,2.1,2.25l2.311,1.17c2.01,1.02,2.819,2.16,2.819,3.87c0,2.7-2.19,3.72-5.64,4.47c-1.83,0-3.779-0.9-4.561-1.35
		l-0.57-3.39h1.921l1.021,2.49c0.629,0.42,1.5,0.75,2.459,0.75c1.59,0,2.4-1.02,2.4-2.28c0-1.17-0.63-1.68-2.189-2.49l-2.371-1.23
		c-1.289-0.66-2.52-1.8-2.52-3.48c0-2.1,1.95-3.27,5.43-4.02c1.62,0,3.36,0.72,4.23,1.35v3h-1.59L194.336,34.338z"/>
	<path fill="#333F48" d="M212.064,37.128v8.219l2.551,0.39l-0.15,1.05l-3.96-0.09l-4.14,0.09l-0.15-1.05l2.7-0.39V27.168l-2.7-0.39
		l0.15-1.05l4.14,0.09l5.46-0.09c3.93-0.03,6.93,1.62,6.93,5.22c0,3.45-3.12,5.1-6.18,5.88l2.1,1.23l5.16,7.29l1.619,0.45
		l-0.119,0.99l-2.461-0.09l-2.1,0.09l-6.359-9.33l-0.36-0.33H212.064z M212.064,35.778h2.1c3.18,0,5.25-1.95,5.25-4.62
		c0-2.79-1.92-4.14-4.35-4.17l-3,0.18V35.778z"/>
	<path fill="#333F48" d="M228.836,39.107c0,3.42,1.829,5.85,4.979,5.85c1.199,0,2.641-0.57,3.75-1.26l0.48,1.14
		c-1.44,0.99-3.33,1.83-5.25,2.37c-3.63,0-6.9-2.58-6.9-7.29c0-4.44,2.67-6.81,6.78-7.709c3.96,0,5.31,2.49,5.31,5.64v1.26H228.836z
		 M234.865,37.608c0-2.31-0.45-3.9-2.76-3.9c-1.83,0-3,1.71-3.24,4.2L234.865,37.608z"/>
	<path fill="#333F48" d="M248.094,34.338c-0.299-0.18-1.199-0.66-2.279-0.66c-1.17,0-2.279,0.63-2.279,1.77
		c0,0.96,0.75,1.56,2.1,2.25l2.31,1.17c2.01,1.02,2.819,2.16,2.819,3.87c0,2.7-2.189,3.72-5.639,4.47c-1.83,0-3.78-0.9-4.561-1.35
		l-0.57-3.39h1.92l1.02,2.49c0.631,0.42,1.5,0.75,2.461,0.75c1.59,0,2.4-1.02,2.4-2.28c0-1.17-0.631-1.68-2.19-2.49l-2.37-1.23
		c-1.289-0.66-2.52-1.8-2.52-3.48c0-2.1,1.949-3.27,5.43-4.02c1.619,0,3.359,0.72,4.229,1.35v3h-1.591L248.094,34.338z"/>
	<path fill="#333F48" d="M255.774,39.107c0,3.42,1.83,5.85,4.979,5.85c1.2,0,2.641-0.57,3.75-1.26l0.48,1.14
		c-1.44,0.99-3.33,1.83-5.25,2.37c-3.63,0-6.9-2.58-6.9-7.29c0-4.44,2.67-6.81,6.78-7.709c3.96,0,5.31,2.49,5.31,5.64v1.26H255.774z
		 M261.805,37.608c0-2.31-0.45-3.9-2.76-3.9c-1.83,0-3,1.71-3.24,4.2L261.805,37.608z"/>
	<path fill="#333F48" d="M272.844,32.208c3.779,0,4.74,0.96,4.74,4.77v5.88c0,1.29,0.21,1.77,0.51,2.25h1.5l0.12,1.05l-3.87,0.75
		l-0.93-2.31l-3.57,2.61c-2.58,0-4.41-1.44-4.41-3.84c0-1.08,0.391-1.86,1.051-2.76l6.75-2.25v-1.5c0-1.8-0.15-2.88-1.771-2.88
		c-0.81,0-1.8,0.27-2.46,0.54l-0.51,2.37h-2.58v-2.28L272.844,32.208z M274.734,39.558l-4.351,1.8c-0.45,0.45-0.601,1.05-0.601,1.68
		c0,1.53,0.871,2.07,1.74,2.07c0.84,0,1.561-0.51,1.95-0.78l1.261-0.87V39.558z"/>
	<path fill="#333F48" d="M285.624,36.558l3.42-4.2h2.399v3h-2.22c-0.72,0.15-2.04,1.14-2.85,2.13l-0.601,0.72v7.14l3.15,0.3
		l-0.15,1.14l-4.35-0.09l-3.359,0.09l-0.15-1.05l2.1-0.3v-10.95l-2.1,0.18l-0.15-1.05l3.601-0.93l1.2-0.09L285.624,36.558z"/>
	<path fill="#333F48" d="M301.104,34.278c-0.479-0.36-0.93-0.48-1.74-0.48c-2.039,0-3.6,2.28-3.6,5.55c0,3.21,1.74,5.61,4.68,5.61
		c1.141,0,2.34-0.57,3.391-1.26l0.479,1.14c-1.38,0.99-2.909,1.74-4.89,2.37c-3.84,0-6.689-2.52-6.689-7.14
		c0-4.709,3.449-6.959,7.14-7.859c1.38,0,3.239,0.69,4.14,1.5v3h-2.22L301.104,34.278z"/>
	<path fill="#333F48" d="M310.764,45.438l1.65,0.3l-0.15,1.05l-2.85-0.09l-3.45,0.09l-0.149-1.05l2.1-0.3V27.348l-2.1,0.06
		l-0.15-1.02l3.6-0.93l1.5-0.12v9.719l4.38-2.85c3.839,0,4.47,1.44,4.47,5.25v7.98l2.25,0.3l-0.15,1.05l-3.449-0.09l-2.82,0.09
		l-0.149-1.05l1.47-0.3v-8.58c0-1.56-0.72-2.25-1.92-2.25c-0.9,0-2.07,0.66-3.18,1.35l-0.9,0.57V45.438z"/>
	<path fill="#333F48" d="M336.383,32.208c3.78,0,4.74,0.96,4.74,4.77v5.88c0,1.29,0.21,1.77,0.51,2.25h1.5l0.119,1.05l-3.869,0.75
		l-0.93-2.31l-3.57,2.61c-2.579,0-4.409-1.44-4.409-3.84c0-1.08,0.39-1.86,1.05-2.76l6.75-2.25v-1.5c0-1.8-0.15-2.88-1.77-2.88
		c-0.811,0-1.801,0.27-2.461,0.54l-0.51,2.37h-2.58v-2.28L336.383,32.208z M338.273,39.558l-4.35,1.8c-0.45,0.45-0.6,1.05-0.6,1.68
		c0,1.53,0.869,2.07,1.739,2.07c0.84,0,1.56-0.51,1.95-0.78l1.26-0.87V39.558z"/>
	<path fill="#333F48" d="M348.054,46.697l-3.45,0.09l-0.15-1.05l2.101-0.3v-10.95l-2.101,0.18l-0.149-1.05l3.601-0.93l1.289-0.09
		l0.15,2.52l4.439-2.91c3.84,0,4.469,1.29,4.469,4.89v8.34l2.281,0.3l-0.15,1.05l-3.449-0.09l-2.88,0.09l-0.15-1.05l1.5-0.3v-8.58
		c0-1.56-0.69-2.25-1.979-2.25c-1.051,0-2.101,0.66-3.12,1.35l-0.9,0.6v8.88l1.65,0.3l-0.15,1.05L348.054,46.697z"/>
	<path fill="#333F48" d="M374.244,42.857c0,1.2,0.21,1.74,0.51,2.19h1.68l0.12,1.11l-4.02,0.75l-0.931-2.31l-3.869,2.61
		c-3.811,0-6.24-2.85-6.24-6.99c0-4.86,2.97-7.41,7.35-8.01c0.601,0,1.86,0.48,2.55,0.81v-5.67l-2.1,0.06l-0.15-1.02l3.601-0.93
		l1.5-0.12V42.857z M370.494,43.578l0.899-0.72v-7.95c-0.659-0.75-1.71-1.2-2.97-1.2c-2.399,0-3.93,2.19-3.93,5.729
		c0,3.33,1.32,5.37,3.12,5.37C368.424,44.808,369.444,44.417,370.494,43.578z"/>
	<path fill="#333F48" d="M59.785,78.197l-4.139,0.09l-0.15-1.08l2.7-0.39V58.668l-2.7-0.39l0.15-1.05l4.139,0.09l4.111-0.09
		l0.149,1.05l-2.7,0.39v18.149l2.7,0.39l-0.149,1.08L59.785,78.197z"/>
	<path fill="#333F48" d="M69.596,78.197l-3.45,0.09l-0.149-1.05l2.1-0.3v-10.95l-2.1,0.18l-0.15-1.05l3.6-0.93l1.289-0.09l0.15,2.52
		l4.44-2.91c3.84,0,4.47,1.29,4.47,4.89v8.34l2.28,0.3l-0.149,1.05l-3.451-0.09l-2.879,0.09l-0.15-1.05l1.5-0.3v-8.58
		c0-1.56-0.689-2.25-1.98-2.25c-1.049,0-2.1,0.66-3.119,1.35l-0.9,0.6v8.88l1.65,0.3l-0.15,1.05L69.596,78.197z"/>
	<path fill="#333F48" d="M95.785,74.357c0,1.2,0.211,1.74,0.511,2.19h1.68l0.12,1.11l-4.02,0.75l-0.93-2.31l-3.871,2.61
		c-3.809,0-6.24-2.85-6.24-6.99c0-4.86,2.971-7.41,7.35-8.01c0.602,0,1.861,0.48,2.551,0.81v-5.67l-2.1,0.06l-0.15-1.02l3.6-0.93
		l1.5-0.12V74.357z M92.035,75.078l0.9-0.72v-7.95c-0.66-0.75-1.709-1.2-2.971-1.2c-2.398,0-3.93,2.19-3.93,5.729
		c0,3.33,1.32,5.37,3.121,5.37C89.965,76.308,90.986,75.917,92.035,75.078z"/>
	<path fill="#333F48" d="M112.496,74.357c0,1.29,0.149,1.77,0.359,2.25h1.5l0.12,1.05l-3.87,0.75l-0.84-2.43l-4.35,2.73
		c-3.96,0-4.62-1.41-4.62-4.89v-7.83l-2.1,0.15l-0.15-1.17l3.601-0.78l1.5-0.12v9.99c0,1.56,0.659,2.25,2.129,2.25
		c0.93,0,2.131-0.75,3.271-1.5l0.6-0.39v-8.43l-1.8,0.15l-0.15-1.17l3.301-0.78l1.5-0.12V74.357z"/>
	<path fill="#333F48" d="M124.226,65.838c-0.3-0.18-1.2-0.66-2.28-0.66c-1.17,0-2.279,0.63-2.279,1.77c0,0.96,0.75,1.56,2.1,2.25
		l2.311,1.17c2.01,1.02,2.819,2.16,2.819,3.87c0,2.7-2.19,3.72-5.64,4.47c-1.83,0-3.779-0.9-4.561-1.35l-0.569-3.39h1.92l1.021,2.49
		c0.629,0.42,1.5,0.75,2.459,0.75c1.59,0,2.4-1.02,2.4-2.28c0-1.17-0.63-1.68-2.189-2.49l-2.371-1.23
		c-1.289-0.66-2.52-1.8-2.52-3.48c0-2.1,1.95-3.27,5.43-4.02c1.62,0,3.359,0.72,4.23,1.35v3h-1.59L124.226,65.838z"/>
	<path fill="#333F48" d="M127.855,65.868v-0.51l1.051-1.05h1.949v-1.95l1.95-1.95h0.78v4.11h4.529v1.35h-4.5v8.79
		c0,0.87,0.33,1.8,1.59,1.8c0.871,0,1.531-0.3,2.371-0.72l0.51,1.02l-3.51,1.95c-3.36,0-3.811-1.2-3.811-3.9v-8.94H127.855z"/>
	<path fill="#333F48" d="M144.086,68.058l3.42-4.2h2.399v3h-2.22c-0.721,0.15-2.04,1.14-2.85,2.13l-0.602,0.72v7.14l3.15,0.3
		l-0.15,1.14l-4.35-0.09l-3.359,0.09l-0.15-1.05l2.101-0.3v-10.95l-2.101,0.18l-0.149-1.05l3.601-0.93l1.199-0.09L144.086,68.058z"
		/>
	<path fill="#333F48" d="M155.006,78.197l-3.45,0.09l-0.15-1.05l2.101-0.3v-10.95l-2.101,0.18l-0.149-1.05l3.6-0.93l1.5-0.12v12.87
		l2.25,0.3l-0.15,1.05L155.006,78.197z M153.506,57.558l2.159-0.15l0.841,0.15l0.149,1.68l-0.33,1.44l-2.13,0.18l-0.811-0.18
		l-0.18-1.68L153.506,57.558z"/>
	<path fill="#333F48" d="M166.016,63.708c3.779,0,4.739,0.96,4.739,4.77v5.88c0,1.29,0.21,1.77,0.511,2.25h1.5l0.119,1.05
		l-3.869,0.75l-0.93-2.31l-3.57,2.61c-2.58,0-4.41-1.44-4.41-3.84c0-1.08,0.391-1.86,1.05-2.76l6.75-2.25v-1.5
		c0-1.8-0.149-2.88-1.771-2.88c-0.81,0-1.799,0.27-2.459,0.54l-0.51,2.37h-2.58v-2.28L166.016,63.708z M167.905,71.058l-4.351,1.8
		c-0.449,0.45-0.6,1.05-0.6,1.68c0,1.53,0.87,2.07,1.74,2.07c0.84,0,1.561-0.51,1.95-0.78l1.26-0.87V71.058z"/>
	<path fill="#333F48" d="M177.686,78.197l-3.451,0.09l-0.148-1.05l2.1-0.3v-18.06l-2.1,0.06l-0.15-1.05l3.6-0.93l1.5-0.12v20.099
		l2.25,0.3l-0.15,1.05L177.686,78.197z"/>
	<path fill="#333F48" d="M206.034,57.228l0.3,5.4h-1.02l-1.68-3.9l-7.95-0.09v7.979l4.2-0.12l1.199-3.15h1.051l-0.301,3.75
		l0.301,4.05h-1.051l-1.199-3.15l-4.2-0.12v9l8.249-0.09l2.011-4.05h1.14l-1.05,5.55l-11.909-0.09l-4.141,0.09l-0.148-1.05
		l2.699-0.39V58.668l-2.699-0.39l0.148-1.05l4.141,0.09L206.034,57.228z"/>
	<path fill="#333F48" d="M212.035,78.197l-3.449,0.09l-0.15-1.05l2.1-0.3v-10.95l-2.1,0.18l-0.15-1.05l3.6-0.93l1.29-0.09l0.15,2.52
		l4.439-2.91c3.84,0,4.47,1.29,4.47,4.89v8.34l2.279,0.3l-0.148,1.05l-3.451-0.09l-2.879,0.09l-0.15-1.05l1.5-0.3v-8.58
		c0-1.56-0.689-2.25-1.98-2.25c-1.049,0-2.1,0.66-3.119,1.35l-0.9,0.6v8.88l1.65,0.3l-0.15,1.05L212.035,78.197z"/>
	<path fill="#333F48" d="M236.186,65.538l1.619-1.83h1.801v2.43h-1.801l-0.99,0.48c0.181,0.45,0.301,0.93,0.301,1.44
		c0,2.55-1.771,4.35-5.85,5.4c-0.42,0-0.811,0-1.17-0.06l-1.621,1.86c0,0.63,0.451,1.05,1.17,1.05h5.49c2.73,0,3.93,1.26,3.93,3.09
		c0,2.46-3.119,4.859-7.649,6.209c-4.35,0-6.54-1.35-6.54-4.14v-0.51l3.27-2.52c-2.1-0.78-2.249-1.74-2.249-3.12v-0.18l2.999-2.07
		c-1.889-0.66-3.119-2.1-3.119-3.959c0-2.55,1.74-4.35,5.85-5.4C233.575,63.708,235.225,64.398,236.186,65.538z M229.225,78.708
		c-1.529,1.68-1.649,2.22-1.649,2.64c0,1.41,1.62,2.49,4.08,2.49s4.56-1.59,4.56-3.6c0-1.08-0.811-1.53-2.85-1.53H229.225z
		 M231.176,65.088c-1.621,0-2.551,1.26-2.551,3.18c0,1.44,0.631,3.78,3.09,3.78c1.621,0,2.551-1.11,2.551-2.85
		C234.266,67.638,233.635,65.088,231.176,65.088z"/>
	<path fill="#333F48" d="M244.405,78.197l-3.45,0.09l-0.15-1.05l2.101-0.3v-10.95l-2.101,0.18l-0.149-1.05l3.601-0.93l1.499-0.12
		v12.87l2.25,0.3l-0.149,1.05L244.405,78.197z M242.905,57.558l2.159-0.15l0.841,0.15l0.149,1.68l-0.33,1.44l-2.129,0.18
		l-0.811-0.18l-0.18-1.68L242.905,57.558z"/>
	<path fill="#333F48" d="M253.256,78.197l-3.45,0.09l-0.15-1.05l2.101-0.3v-10.95l-2.101,0.18l-0.149-1.05l3.6-0.93l1.289-0.09
		l0.15,2.52l4.439-2.91c3.84,0,4.471,1.29,4.471,4.89v8.34l2.279,0.3l-0.148,1.05l-3.451-0.09l-2.88,0.09l-0.149-1.05l1.5-0.3v-8.58
		c0-1.56-0.69-2.25-1.98-2.25c-1.05,0-2.1,0.66-3.119,1.35l-0.9,0.6v8.88l1.65,0.3l-0.15,1.05L253.256,78.197z"/>
	<path fill="#333F48" d="M269.635,70.607c0,3.42,1.83,5.85,4.98,5.85c1.199,0,2.641-0.57,3.75-1.26l0.48,1.14
		c-1.44,0.99-3.33,1.83-5.25,2.37c-3.631,0-6.9-2.58-6.9-7.29c0-4.44,2.67-6.81,6.78-7.709c3.96,0,5.31,2.49,5.31,5.64v1.26H269.635
		z M275.666,69.108c0-2.31-0.45-3.9-2.76-3.9c-1.83,0-3,1.71-3.24,4.2L275.666,69.108z"/>
	<path fill="#333F48" d="M283.734,70.607c0,3.42,1.831,5.85,4.98,5.85c1.2,0,2.641-0.57,3.75-1.26l0.48,1.14
		c-1.44,0.99-3.33,1.83-5.25,2.37c-3.63,0-6.9-2.58-6.9-7.29c0-4.44,2.67-6.81,6.78-7.709c3.96,0,5.31,2.49,5.31,5.64v1.26H283.734z
		 M289.766,69.108c0-2.31-0.451-3.9-2.76-3.9c-1.83,0-3,1.71-3.24,4.2L289.766,69.108z"/>
	<path fill="#333F48" d="M299.305,68.058l3.42-4.2h2.4v3h-2.22c-0.72,0.15-2.04,1.14-2.851,2.13l-0.6,0.72v7.14l3.15,0.3l-0.15,1.14
		l-4.35-0.09l-3.36,0.09l-0.149-1.05l2.1-0.3v-10.95l-2.1,0.18l-0.15-1.05l3.6-0.93l1.2-0.09L299.305,68.058z"/>
	<path fill="#333F48" d="M310.225,78.197l-3.449,0.09l-0.15-1.05l2.1-0.3v-10.95l-2.1,0.18l-0.15-1.05l3.601-0.93l1.5-0.12v12.87
		l2.249,0.3l-0.149,1.05L310.225,78.197z M308.725,57.558l2.16-0.15l0.84,0.15l0.15,1.68l-0.33,1.44l-2.13,0.18l-0.81-0.18
		l-0.18-1.68L308.725,57.558z"/>
	<path fill="#333F48" d="M319.075,78.197l-3.45,0.09l-0.15-1.05l2.101-0.3v-10.95l-2.101,0.18l-0.149-1.05l3.601-0.93l1.289-0.09
		l0.15,2.52l4.439-2.91c3.84,0,4.471,1.29,4.471,4.89v8.34l2.279,0.3l-0.15,1.05l-3.449-0.09l-2.881,0.09l-0.149-1.05l1.5-0.3v-8.58
		c0-1.56-0.69-2.25-1.979-2.25c-1.051,0-2.101,0.66-3.12,1.35l-0.9,0.6v8.88l1.65,0.3l-0.15,1.05L319.075,78.197z"/>
	<path fill="#333F48" d="M343.225,65.538l1.62-1.83h1.8v2.43h-1.8l-0.989,0.48c0.18,0.45,0.299,0.93,0.299,1.44
		c0,2.55-1.77,4.35-5.85,5.4c-0.42,0-0.81,0-1.17-0.06l-1.619,1.86c0,0.63,0.449,1.05,1.17,1.05h5.489
		c2.729,0,3.931,1.26,3.931,3.09c0,2.46-3.121,4.859-7.65,6.209c-4.35,0-6.539-1.35-6.539-4.14v-0.51l3.27-2.52
		c-2.1-0.78-2.25-1.74-2.25-3.12v-0.18l3-2.07c-1.891-0.66-3.121-2.1-3.121-3.959c0-2.55,1.74-4.35,5.851-5.4
		C340.615,63.708,342.266,64.398,343.225,65.538z M336.266,78.708c-1.531,1.68-1.65,2.22-1.65,2.64c0,1.41,1.619,2.49,4.08,2.49
		c2.46,0,4.56-1.59,4.56-3.6c0-1.08-0.81-1.53-2.85-1.53H336.266z M338.215,65.088c-1.619,0-2.55,1.26-2.55,3.18
		c0,1.44,0.63,3.78,3.09,3.78c1.62,0,2.55-1.11,2.55-2.85C341.305,67.638,340.675,65.088,338.215,65.088z"/>
</g>
<g>
	<polygon fill="#BF5700" points="20.926,18.037 20.972,18.037 20.972,18.021 20.926,18.021 20.926,18.037 	"/>
	<path fill="#BF5700" d="M26.375,13.495c-1.139-0.175-2.215-0.341-3.189-0.341c-0.521,0-0.978,0.051-1.386,0.149l-0.228-6.358V5.891
		c0.449-0.188,0.994-0.275,1.686-0.275c0.889,0,1.904,0.148,2.979,0.307c0.946,0.139,1.919,0.276,2.917,0.34l0.271,7.601
		C28.402,13.806,27.375,13.65,26.375,13.495L26.375,13.495z M15.523,13.495c-1.001,0.155-2.029,0.311-3.053,0.367l0.273-7.601
		c0.998-0.063,1.97-0.201,2.916-0.34c1.074-0.158,2.092-0.307,2.98-0.307c0.691,0,1.236,0.088,1.685,0.275v1.055l-0.228,6.358
		c-0.408-0.099-0.863-0.149-1.387-0.149C17.738,13.154,16.662,13.32,15.523,13.495L15.523,13.495z M31.676,9.01V7.564h-0.891V5.097
		h-0.604c-1.274,0-2.542-0.187-3.77-0.366c-1.119-0.164-2.178-0.32-3.154-0.32c-0.919,0-1.678,0.145-2.309,0.441
		c-0.631-0.297-1.391-0.441-2.309-0.441c-0.977,0-2.035,0.156-3.155,0.32c-1.227,0.18-2.495,0.366-3.771,0.366h-0.602v2.468h-0.892
		V9.01h0.892v1.957h-0.881v1.445h0.881v2.68h0.602c1.363,0,2.699-0.207,3.992-0.406c1.092-0.168,2.123-0.328,3.004-0.328
		c0.711,0,1.244,0.104,1.656,0.318v0.001h1.162v-0.001c0.413-0.215,0.947-0.318,1.656-0.318c0.883,0,1.914,0.16,3.006,0.328
		c1.291,0.199,2.63,0.406,3.99,0.406h0.604v-2.68h0.881v-1.445h-0.881V9.01H31.676L31.676,9.01z"/>
	<path fill="#BF5700" d="M15.688,7.014c-0.06,0.009-0.119,0.018-0.178,0.026c-0.566,0.083-1.143,0.167-1.723,0.233l-0.033,0.975
		c0.643-0.07,1.273-0.163,1.896-0.255c0.013-0.003,0.025-0.004,0.038-0.007V7.014L15.688,7.014z"/>
	<path fill="#BF5700" d="M16.41,6.911v0.973c1.025-0.143,1.965-0.245,2.781-0.178l0.033-0.96C18.355,6.681,17.402,6.776,16.41,6.911
		L16.41,6.911z"/>
	<path fill="#BF5700" d="M15.688,11.423c-0.06,0.009-0.119,0.018-0.178,0.026c-0.618,0.091-1.246,0.183-1.881,0.252l-0.035,0.973
		c0.697-0.073,1.383-0.173,2.056-0.271c0.013-0.002,0.025-0.004,0.038-0.006V11.423L15.688,11.423z"/>
	<path fill="#BF5700" d="M16.41,11.32v0.973c0.959-0.133,1.846-0.231,2.623-0.188l0.033-0.959
		C18.24,11.103,17.343,11.193,16.41,11.32L16.41,11.32z"/>
	<path fill="#BF5700" d="M15.538,9.24v0.975c0.037-0.006,0.074-0.012,0.111-0.018c1.288-0.188,2.466-0.361,3.462-0.295l0.034-0.957
		C18.043,8.877,16.812,9.053,15.538,9.24L15.538,9.24z"/>
	<path fill="#BF5700" d="M14.814,9.344c-0.365,0.053-0.734,0.102-1.106,0.145l-0.035,0.973c0.386-0.041,0.767-0.092,1.142-0.144
		V9.344L14.814,9.344z"/>
	<path fill="#BF5700" d="M25.049,6.854c-0.834-0.103-1.637-0.164-2.376-0.108l0.034,0.96c0.697-0.057,1.486,0.01,2.342,0.119V6.854
		L25.049,6.854z"/>
	<path fill="#BF5700" d="M28.11,7.273c-0.581-0.066-1.156-0.15-1.723-0.233c-0.207-0.03-0.413-0.061-0.616-0.089v0.973
		c0.156,0.022,0.316,0.045,0.477,0.069c0.622,0.092,1.254,0.185,1.897,0.255L28.11,7.273L28.11,7.273z"/>
	<path fill="#BF5700" d="M24.85,9.035c-0.732-0.083-1.439-0.131-2.098-0.09l0.034,0.957c0.623-0.041,1.315,0.01,2.063,0.102V9.035
		L24.85,9.035z"/>
	<path fill="#BF5700" d="M28.189,9.488c-0.607-0.068-1.21-0.156-1.802-0.244c-0.274-0.039-0.546-0.079-0.815-0.117V10.1
		c0.222,0.031,0.447,0.064,0.676,0.098c0.647,0.096,1.307,0.191,1.977,0.264L28.189,9.488L28.189,9.488z"/>
	<path fill="#BF5700" d="M26.295,12.409c0.656,0.097,1.327,0.193,2.009,0.265l-0.034-0.973c-0.637-0.069-1.264-0.161-1.882-0.252
		c-0.03-0.005-0.062-0.009-0.093-0.014V12.409L26.295,12.409z"/>
	<path fill="#BF5700" d="M25.572,11.332c-0.963-0.133-1.891-0.23-2.742-0.187l0.035,0.959c0.801-0.044,1.715,0.061,2.707,0.201
		V11.332L25.572,11.332z"/>
	<path fill="#BF5700" d="M19.695,26.883l1.254-3.135l1.254,3.135l3.37,0.225l-2.595,2.162l0.828,3.272l-2.857-1.801l-2.857,1.801
		l0.83-3.272l-2.596-2.162L19.695,26.883L19.695,26.883z M12.061,25.771L12.061,25.771l5.445,3.96l-2.098,6.451
		c0.002,0.012,0.008,0.024,0.018,0.032s0.021,0.008,0.033,0.008l5.49-3.992l5.488,3.989c0.012,0.003,0.024,0,0.033-0.005
		c0.018-0.015,0.021-0.038,0.012-0.059l-2.088-6.427l5.443-3.956V25.77c0.025-0.009,0.041-0.034,0.033-0.06
		c-0.008-0.023-0.035-0.036-0.062-0.028V25.68h-6.73l-2.08-6.402h-0.003c0-0.027-0.021-0.05-0.046-0.05s-0.046,0.022-0.046,0.05
		H20.9l-2.078,6.402H12.09l-0.002,0.004c-0.025-0.009-0.053,0.004-0.061,0.028C12.02,25.735,12.033,25.762,12.061,25.771
		L12.061,25.771z"/>
	<path fill="#BF5700" d="M34.465,33.862c-0.49,0.542-1.128,0.918-1.832,1.088c0.1-0.721,0.41-1.395,0.9-1.935
		c0.495-0.545,1.133-0.923,1.834-1.09C35.268,32.646,34.957,33.32,34.465,33.862L34.465,33.862z M31.83,29.627
		c-0.094-0.729,0.033-1.459,0.359-2.107c0.482,0.543,0.791,1.215,0.887,1.943c0.097,0.725-0.03,1.455-0.357,2.103
		C32.236,31.024,31.926,30.351,31.83,29.627L31.83,29.627z M33.289,24.115c-0.137-0.723-0.055-1.459,0.232-2.125
		c0.513,0.512,0.862,1.166,1,1.887c0.141,0.719,0.059,1.455-0.23,2.123C33.777,25.486,33.428,24.833,33.289,24.115L33.289,24.115z
		 M36.768,25.724c0.051,0.726-0.115,1.448-0.484,2.081c-0.367,0.633-0.912,1.133-1.567,1.445c-0.051-0.727,0.114-1.449,0.482-2.082
		C35.568,26.533,36.115,26.035,36.768,25.724L36.768,25.724z M31.434,39.412c-0.592,0.43-1.287,0.664-2.017,0.688
		c0.246-0.688,0.688-1.281,1.282-1.709c0.594-0.432,1.291-0.666,2.02-0.686C32.471,38.389,32.027,38.982,31.434,39.412
		L31.434,39.412z M29.73,34.725c0.061-0.733,0.334-1.42,0.787-1.986c0.359,0.628,0.523,1.351,0.467,2.082
		c-0.057,0.73-0.33,1.421-0.785,1.986C29.84,36.176,29.674,35.455,29.73,34.725L29.73,34.725z M27.83,39.633
		c-0.205,0.701-0.616,1.318-1.178,1.779c-0.223-0.689-0.234-1.43-0.028-2.133c0.209-0.705,0.621-1.322,1.181-1.78
		C28.026,38.186,28.037,38.928,27.83,39.633L27.83,39.633z M28.932,42.811c-0.383,0.618-0.939,1.109-1.61,1.406
		c-0.465,0.208-0.958,0.313-1.466,0.313l0,0c-0.219,0-0.436-0.019-0.648-0.059c0.383-0.619,0.938-1.106,1.607-1.405
		C27.482,42.768,28.221,42.682,28.932,42.811L28.932,42.811z M22.643,43.096c0.352-0.648,0.881-1.168,1.523-1.5
		c0.074,0.719-0.066,1.445-0.416,2.093c-0.345,0.645-0.874,1.164-1.52,1.5C22.156,44.467,22.297,43.739,22.643,43.096L22.643,43.096
		z M14.506,44.217c-0.669-0.297-1.227-0.788-1.609-1.406c0.711-0.129,1.447-0.043,2.117,0.256c0.668,0.299,1.226,0.786,1.608,1.405
		C15.91,44.603,15.173,44.515,14.506,44.217L14.506,44.217z M13.998,39.631c-0.207-0.703-0.195-1.445,0.026-2.132
		c0.559,0.458,0.971,1.073,1.18,1.778c0.206,0.705,0.194,1.445-0.028,2.135C14.614,40.951,14.203,40.334,13.998,39.631
		L13.998,39.631z M17.662,41.596c0.643,0.332,1.172,0.852,1.521,1.496c0.348,0.647,0.488,1.375,0.414,2.097
		c-0.645-0.336-1.174-0.855-1.52-1.5C17.729,43.041,17.588,42.314,17.662,41.596L17.662,41.596z M10.395,39.412
		c-0.594-0.43-1.037-1.023-1.284-1.707c0.729,0.02,1.425,0.254,2.019,0.686c0.594,0.428,1.037,1.021,1.283,1.709
		C11.682,40.076,10.986,39.842,10.395,39.412L10.395,39.412z M11.311,32.738c0.453,0.566,0.727,1.253,0.787,1.985
		c0.057,0.731-0.109,1.452-0.469,2.083c-0.455-0.565-0.729-1.256-0.785-1.987C10.787,34.089,10.951,33.366,11.311,32.738
		L11.311,32.738z M7.363,33.862c-0.49-0.542-0.803-1.217-0.902-1.937c0.702,0.167,1.34,0.545,1.833,1.09
		c0.491,0.54,0.803,1.214,0.902,1.935C8.491,34.78,7.854,34.404,7.363,33.862L7.363,33.862z M7.113,29.25
		c-0.654-0.312-1.201-0.812-1.568-1.445c-0.369-0.633-0.535-1.355-0.484-2.081c0.652,0.312,1.199,0.81,1.57,1.444
		C6.998,27.801,7.164,28.523,7.113,29.25L7.113,29.25z M7.306,23.875c0.139-0.721,0.489-1.373,1.001-1.885
		c0.287,0.666,0.369,1.402,0.232,2.123C8.4,24.833,8.051,25.486,7.537,26C7.248,25.332,7.166,24.596,7.306,23.875L7.306,23.875z
		 M8.752,29.461c0.096-0.727,0.405-1.398,0.887-1.941c0.326,0.648,0.453,1.379,0.359,2.105c-0.096,0.726-0.405,1.399-0.888,1.94
		C8.782,30.918,8.656,30.188,8.752,29.461L8.752,29.461z M34.467,30.374c1.123-0.338,2.064-1.077,2.65-2.085
		c0.586-1.006,0.768-2.191,0.51-3.335l-0.113-0.503l-0.494,0.147c-0.568,0.169-1.092,0.443-1.545,0.804
		c0.105-0.56,0.104-1.139-0.006-1.707c-0.221-1.148-0.863-2.16-1.81-2.85l-0.417-0.305l-0.274,0.438
		c-0.621,0.988-0.843,2.168-0.625,3.317c0.22,1.14,0.858,2.146,1.796,2.837c-0.174,0.393-0.292,0.805-0.35,1.227
		c-0.278-0.762-0.753-1.445-1.393-1.973l-0.398-0.33l-0.301,0.42c-0.678,0.949-0.971,2.113-0.822,3.273
		c0.152,1.155,0.732,2.206,1.637,2.953l0.021,0.015c-0.266,0.36-0.475,0.754-0.625,1.172c-0.113-0.804-0.438-1.569-0.955-2.219
		l-0.32-0.405l-0.381,0.351c-0.861,0.789-1.387,1.865-1.48,3.033c-0.092,1.161,0.262,2.306,0.99,3.224l0.019,0.023
		c-0.335,0.295-0.62,0.639-0.854,1.016c0.055-0.812-0.103-1.629-0.476-2.371l-0.23-0.461l-0.444,0.265
		c-1.006,0.595-1.743,1.54-2.075,2.661c-0.328,1.121-0.221,2.312,0.303,3.361l0.014,0.025c-0.389,0.221-0.738,0.496-1.045,0.818
		c0.221-0.783,0.234-1.615,0.023-2.416l-0.131-0.5l-0.488,0.164c-1.106,0.375-2.022,1.148-2.581,2.178
		c-0.534,0.993-0.681,2.143-0.419,3.239c-0.147,0.102-0.302,0.207-0.463,0.316c-0.16-0.109-0.316-0.215-0.463-0.316
		c0.261-1.097,0.115-2.246-0.42-3.241c-0.557-1.027-1.473-1.801-2.58-2.176l-0.488-0.164l-0.131,0.5
		c-0.211,0.801-0.197,1.633,0.023,2.416c-0.307-0.322-0.656-0.598-1.044-0.818l0.013-0.025c0.524-1.049,0.632-2.24,0.304-3.361
		c-0.333-1.121-1.07-2.066-2.076-2.661l-0.443-0.265l-0.231,0.461c-0.373,0.742-0.529,1.559-0.475,2.371
		c-0.234-0.379-0.52-0.721-0.854-1.016l0.018-0.023c0.73-0.918,1.082-2.062,0.99-3.227c-0.094-1.165-0.619-2.241-1.48-3.03
		l-0.381-0.351l-0.32,0.405c-0.518,0.649-0.841,1.415-0.955,2.219c-0.149-0.418-0.358-0.812-0.624-1.172l0.021-0.015
		c0.903-0.747,1.483-1.798,1.636-2.953c0.148-1.16-0.143-2.324-0.822-3.273l-0.301-0.42l-0.397,0.33
		c-0.641,0.527-1.115,1.211-1.393,1.975c-0.058-0.424-0.175-0.836-0.351-1.229c0.938-0.691,1.576-1.697,1.796-2.838
		c0.218-1.15-0.004-2.328-0.625-3.316l-0.274-0.438l-0.418,0.305c-0.945,0.689-1.588,1.701-1.809,2.848
		c-0.109,0.57-0.111,1.148-0.006,1.709c-0.453-0.36-0.977-0.635-1.544-0.804l-0.495-0.147l-0.113,0.503
		c-0.257,1.144-0.076,2.329,0.51,3.335c0.586,1.008,1.527,1.747,2.65,2.085l0.436,0.13c0.045,0.366,0.137,0.727,0.269,1.074
		c-0.622-0.398-1.333-0.641-2.083-0.701l-0.514-0.042l-0.008,0.517c-0.016,1.172,0.406,2.292,1.188,3.155
		c0.781,0.865,1.855,1.395,3.023,1.492l0.453,0.038c0.119,0.351,0.283,0.684,0.484,0.993c-0.508-0.19-1.045-0.29-1.598-0.29
		c-0.195,0-0.392,0.013-0.585,0.035l-0.512,0.066l0.099,0.504c0.229,1.152,0.871,2.162,1.815,2.848
		c0.784,0.57,1.716,0.871,2.69,0.871c0.191,0,0.385-0.012,0.574-0.035l0.451-0.059c0.191,0.318,0.419,0.609,0.682,0.873
		c-0.731-0.109-1.482-0.045-2.189,0.201l-0.488,0.17l0.203,0.475c0.459,1.077,1.299,1.934,2.361,2.407
		c0.591,0.264,1.216,0.396,1.859,0.396c0.514,0,1.021-0.086,1.51-0.254l0.359-0.125c0.6,0.51,1.277,1.018,2.209,1.656
		c-0.426,0.279-0.895,0.586-1.42,0.922l0.905,0.562c0.512-0.33,0.965-0.627,1.378-0.902c0.413,0.275,0.866,0.572,1.378,0.902
		l0.905-0.562c-0.524-0.336-0.994-0.643-1.418-0.922c0.93-0.639,1.607-1.146,2.207-1.656l0.361,0.125
		c0.488,0.168,0.994,0.254,1.508,0.254l0,0c0.645,0,1.27-0.133,1.859-0.395c1.064-0.476,1.902-1.332,2.361-2.409l0.203-0.475
		l-0.488-0.17c-0.707-0.246-1.458-0.311-2.189-0.199c0.263-0.264,0.491-0.557,0.682-0.875l0.451,0.059
		c0.19,0.023,0.383,0.035,0.574,0.035h0.002c0.973,0,1.904-0.301,2.689-0.871c0.942-0.686,1.587-1.695,1.813-2.848l0.1-0.504
		l-0.512-0.066c-0.193-0.022-0.391-0.035-0.585-0.035c-0.552,0-1.09,0.1-1.598,0.29c0.201-0.31,0.365-0.643,0.486-0.993l0.451-0.038
		c1.169-0.098,2.242-0.627,3.022-1.492c0.782-0.863,1.204-1.983,1.188-3.155l-0.008-0.517l-0.514,0.042
		c-0.749,0.061-1.461,0.303-2.083,0.701c0.133-0.348,0.224-0.708,0.269-1.074L34.467,30.374L34.467,30.374z"/>
	<path fill="#BF5700" d="M34.591,40.555c-0.981,1.436-2.104,2.768-3.458,4.063c-4.178,3.837-8.867,5.956-10.188,6.507
		c-1.321-0.551-6.011-2.67-10.188-6.507c-1.354-1.296-2.477-2.628-3.458-4.063c-4.744-6.946-5.366-15.002-5.37-21.261l0.005-0.001
		l19.017-1.057l19.013,1.056C39.957,25.552,39.336,33.608,34.591,40.555L34.591,40.555z M2.941,3.129
		c3.535-0.392,11.483-1.184,18.008-1.184c6.523,0,14.471,0.792,18.007,1.184l0.989,13.93H20.949H1.951L2.941,3.129L2.941,3.129z
		 M41.891,1.519l-0.844-0.106C40.934,1.398,29.703,0.001,20.955,0c-0.002,0-0.004,0-0.004,0h-0.009
		C12.195,0.001,0.965,1.398,0.852,1.412L0.008,1.519v15.54H0v2.169c0,6.546,0.648,15.008,5.707,22.415
		c1.043,1.525,2.227,2.933,3.646,4.302l-0.002,0.002c0.011,0.008,0.02,0.016,0.029,0.023c2.744,2.641,6.371,5.132,11.559,8.022V54
		c0.002-0.004,0.003-0.004,0.003-0.004c0.004,0,0.005,0,0.007,0.004v-0.008c5.188-2.891,8.814-5.382,11.559-8.022
		c0.01-0.008,0.019-0.016,0.027-0.023v-0.002c1.419-1.369,2.604-2.776,3.646-4.302c5.059-7.407,5.707-15.869,5.707-22.415v-0.309
		l0.002-0.001V1.519L41.891,1.519z"/>
</g>
</svg>
