<?xml version="1.0" encoding="utf-8"?>
<!-- Generator: Adobe Illustrator 16.0.0, SVG Export Plug-In . SVG Version: 6.00 Build 0)  -->
<!DOCTYPE svg PUBLIC "-//W3C//DTD SVG 1.1//EN" "http://www.w3.org/Graphics/SVG/1.1/DTD/svg11.dtd">
<svg version="1.1" id="Layer_1" xmlns="http://www.w3.org/2000/svg" xmlns:xlink="http://www.w3.org/1999/xlink" x="0px" y="0px"
	 width="17.197px" height="16.237px" viewBox="0 0 17.197 16.237" enable-background="new 0 0 17.197 16.237" xml:space="preserve">
<g>
	<path fill="#A6A8AC" d="M5.646,1.943c2.176-0.132,4.049,1.525,4.182,3.702c0.135,2.18-1.525,4.052-3.699,4.185
		C3.947,9.963,2.075,8.305,1.942,6.126C1.81,3.95,3.467,2.076,5.646,1.943 M5.528,0.011C2.286,0.209-0.186,3.005,0.011,6.244
		c0.199,3.243,2.992,5.715,6.234,5.518c3.238-0.197,5.713-2.993,5.516-6.234C11.563,2.29,8.767-0.186,5.528,0.011L5.528,0.011z"/>
	<path fill="#A6A8AC" d="M15.685,16.234c-0.414,0.025-0.835-0.107-1.168-0.402l-3.029-2.684c-0.669-0.59-0.73-1.607-0.139-2.277
		c0.589-0.664,1.609-0.727,2.274-0.139l3.032,2.684c0.664,0.59,0.728,1.609,0.139,2.277C16.498,16.027,16.099,16.209,15.685,16.234z
		"/>
	
		<rect x="9.715" y="9.442" transform="matrix(0.7496 0.6619 -0.6619 0.7496 9.6015 -4.5597)" fill="#A6A8AC" width="2.225" height="1.938"/>
</g>
</svg>
