<?xml version="1.0" encoding="utf-8"?>
<!-- Generator: Adobe Illustrator 16.0.0, SVG Export Plug-In . SVG Version: 6.00 Build 0)  -->
<!DOCTYPE svg PUBLIC "-//W3C//DTD SVG 1.1//EN" "http://www.w3.org/Graphics/SVG/1.1/DTD/svg11.dtd">
<svg version="1.1" id="Layer_1" xmlns="http://www.w3.org/2000/svg" xmlns:xlink="http://www.w3.org/1999/xlink" x="0px" y="0px"
	 width="243.953px" height="54px" viewBox="0 0 243.953 54" enable-background="new 0 0 243.953 54" xml:space="preserve">
<g>
	<g>
		<polygon fill="#FFFFFF" points="20.925,18.037 20.971,18.037 20.971,18.021 20.925,18.021 20.925,18.037 		"/>
		<path fill="#FFFFFF" d="M26.373,13.494c-1.139-0.174-2.215-0.34-3.188-0.34c-0.522,0-0.979,0.051-1.387,0.148l-0.228-6.357V5.891
			c0.449-0.188,0.993-0.275,1.686-0.275c0.888,0,1.905,0.148,2.979,0.307c0.946,0.139,1.919,0.275,2.916,0.34l0.273,7.6
			C28.402,13.805,27.374,13.65,26.373,13.494L26.373,13.494z M15.522,13.494c-1.001,0.156-2.029,0.311-3.053,0.367l0.273-7.6
			c0.998-0.064,1.97-0.201,2.916-0.34c1.075-0.158,2.091-0.307,2.979-0.307c0.691,0,1.236,0.088,1.686,0.275v1.055l-0.227,6.357
			c-0.408-0.098-0.863-0.148-1.387-0.148C17.736,13.154,16.661,13.32,15.522,13.494L15.522,13.494z M31.676,9.01V7.564h-0.893V5.096
			h-0.602c-1.275,0-2.543-0.186-3.77-0.365c-1.121-0.164-2.178-0.32-3.155-0.32c-0.919,0-1.678,0.145-2.309,0.441
			c-0.631-0.297-1.391-0.441-2.31-0.441c-0.977,0-2.034,0.156-3.154,0.32c-1.227,0.18-2.495,0.365-3.771,0.365h-0.602v2.469h-0.892
			V9.01h0.892v1.957h-0.881v1.445h0.881v2.68h0.602c1.363,0,2.699-0.207,3.992-0.406c1.092-0.168,2.124-0.328,3.005-0.328
			c0.709,0,1.244,0.104,1.656,0.318l0,0h1.161l0,0c0.413-0.215,0.947-0.318,1.657-0.318c0.881,0,1.912,0.16,3.004,0.328
			c1.293,0.199,2.631,0.406,3.992,0.406h0.602v-2.68h0.881v-1.445h-0.881V9.01H31.676L31.676,9.01z"/>
		<path fill="#FFFFFF" d="M15.687,7.014c-0.06,0.008-0.118,0.018-0.178,0.025c-0.566,0.084-1.142,0.168-1.723,0.234l-0.033,0.975
			c0.643-0.07,1.273-0.164,1.896-0.256c0.013-0.002,0.025-0.004,0.038-0.006V7.014L15.687,7.014z"/>
		<path fill="#FFFFFF" d="M16.409,6.91v0.973c1.024-0.143,1.966-0.244,2.78-0.178l0.035-0.959C18.354,6.68,17.4,6.775,16.409,6.91
			L16.409,6.91z"/>
		<path fill="#FFFFFF" d="M15.687,11.422c-0.06,0.01-0.118,0.018-0.178,0.027c-0.618,0.09-1.246,0.182-1.881,0.252l-0.035,0.973
			c0.697-0.074,1.383-0.174,2.056-0.271c0.013-0.002,0.025-0.004,0.038-0.006V11.422L15.687,11.422z"/>
		<path fill="#FFFFFF" d="M16.409,11.32v0.973c0.959-0.133,1.845-0.232,2.622-0.189l0.035-0.959
			C18.238,11.102,17.342,11.193,16.409,11.32L16.409,11.32z"/>
		<path fill="#FFFFFF" d="M15.537,9.24v0.975c0.037-0.006,0.074-0.012,0.111-0.018c1.288-0.188,2.465-0.361,3.463-0.295l0.033-0.957
			C18.043,8.877,16.812,9.053,15.537,9.24L15.537,9.24z"/>
		<path fill="#FFFFFF" d="M14.814,9.344c-0.366,0.053-0.735,0.102-1.107,0.145l-0.035,0.973c0.386-0.041,0.767-0.092,1.143-0.145
			V9.344L14.814,9.344z"/>
		<path fill="#FFFFFF" d="M25.047,6.854c-0.834-0.102-1.635-0.164-2.375-0.107l0.034,0.959c0.696-0.057,1.487,0.01,2.341,0.119
			V6.854L25.047,6.854z"/>
		<path fill="#FFFFFF" d="M28.109,7.273c-0.581-0.066-1.156-0.15-1.723-0.234C26.18,7.01,25.975,6.979,25.77,6.951v0.973
			c0.158,0.021,0.316,0.045,0.479,0.068c0.621,0.092,1.253,0.186,1.896,0.256L28.109,7.273L28.109,7.273z"/>
		<path fill="#FFFFFF" d="M24.85,9.035c-0.734-0.084-1.439-0.131-2.1-0.09l0.035,0.957c0.623-0.041,1.316,0.01,2.064,0.102V9.035
			L24.85,9.035z"/>
		<path fill="#FFFFFF" d="M28.188,9.488c-0.607-0.068-1.21-0.156-1.802-0.244c-0.273-0.039-0.546-0.08-0.814-0.117V10.1
			c0.221,0.031,0.445,0.064,0.676,0.098c0.646,0.096,1.306,0.191,1.976,0.264L28.188,9.488L28.188,9.488z"/>
		<path fill="#FFFFFF" d="M26.295,12.408c0.656,0.098,1.326,0.193,2.008,0.266l-0.034-0.973c-0.636-0.07-1.264-0.162-1.882-0.252
			c-0.031-0.006-0.061-0.01-0.092-0.014V12.408L26.295,12.408z"/>
		<path fill="#FFFFFF" d="M25.572,11.332c-0.963-0.133-1.891-0.23-2.744-0.188l0.035,0.959c0.802-0.043,1.717,0.061,2.709,0.201
			V11.332L25.572,11.332z"/>
		<path fill="#FFFFFF" d="M19.695,26.883l1.253-3.135l1.254,3.135l3.37,0.225l-2.596,2.162l0.83,3.271l-2.858-1.801l-2.856,1.801
			l0.828-3.271l-2.595-2.162L19.695,26.883L19.695,26.883z M12.06,25.77v0.002l5.446,3.959l-2.099,6.451
			c0.002,0.012,0.008,0.023,0.018,0.031s0.021,0.008,0.033,0.008l5.49-3.992l5.488,3.99c0.012,0.002,0.024,0,0.033-0.006
			c0.018-0.014,0.021-0.037,0.011-0.059l-2.088-6.426l5.445-3.957l-0.002-0.002c0.027-0.01,0.041-0.035,0.033-0.061
			c-0.007-0.023-0.035-0.035-0.061-0.027V25.68h-6.732l-2.079-6.402h-0.003c0-0.027-0.02-0.051-0.046-0.051
			c-0.025,0-0.046,0.023-0.046,0.051h-0.003L18.82,25.68h-6.731l-0.002,0.004c-0.025-0.01-0.053,0.004-0.061,0.027
			S12.032,25.762,12.06,25.77L12.06,25.77z"/>
		<path fill="#FFFFFF" d="M34.464,33.861c-0.49,0.543-1.128,0.918-1.833,1.088c0.1-0.721,0.411-1.395,0.901-1.934
			c0.495-0.545,1.133-0.924,1.835-1.09C35.268,32.645,34.956,33.32,34.464,33.861L34.464,33.861z M31.83,29.627
			c-0.094-0.729,0.033-1.459,0.359-2.107c0.48,0.543,0.79,1.215,0.886,1.943c0.097,0.725-0.03,1.455-0.356,2.102
			C32.236,31.023,31.926,30.35,31.83,29.627L31.83,29.627z M33.288,24.115c-0.136-0.723-0.054-1.459,0.232-2.125
			c0.513,0.512,0.862,1.166,1.001,1.887c0.14,0.719,0.058,1.455-0.231,2.123C33.776,25.486,33.427,24.832,33.288,24.115
			L33.288,24.115z M36.768,25.723c0.051,0.727-0.115,1.449-0.484,2.082s-0.913,1.133-1.568,1.445
			c-0.051-0.727,0.113-1.449,0.482-2.082C35.568,26.533,36.113,26.035,36.768,25.723L36.768,25.723z M31.434,39.412
			c-0.592,0.43-1.287,0.664-2.018,0.688c0.246-0.688,0.689-1.281,1.281-1.709c0.596-0.432,1.291-0.666,2.02-0.686
			C32.471,38.389,32.027,38.982,31.434,39.412L31.434,39.412z M29.73,34.725c0.059-0.734,0.334-1.42,0.787-1.986
			c0.359,0.627,0.523,1.35,0.465,2.082c-0.055,0.73-0.33,1.42-0.785,1.986C29.838,36.176,29.674,35.455,29.73,34.725L29.73,34.725z
			 M27.829,39.633c-0.205,0.701-0.616,1.318-1.178,1.779c-0.222-0.689-0.234-1.43-0.028-2.133c0.209-0.705,0.621-1.322,1.181-1.781
			C28.025,38.186,28.036,38.928,27.829,39.633L27.829,39.633z M28.931,42.811c-0.383,0.619-0.939,1.109-1.61,1.406
			c-0.465,0.209-0.958,0.314-1.466,0.314l0,0c-0.218,0-0.435-0.02-0.649-0.059c0.383-0.619,0.939-1.107,1.608-1.406
			S28.22,42.682,28.931,42.811L28.931,42.811z M22.643,43.096c0.352-0.648,0.881-1.168,1.523-1.5
			c0.074,0.719-0.067,1.445-0.416,2.094c-0.346,0.645-0.875,1.164-1.521,1.5C22.155,44.467,22.295,43.74,22.643,43.096
			L22.643,43.096z M14.505,44.217c-0.669-0.297-1.227-0.787-1.609-1.406c0.711-0.129,1.447-0.043,2.118,0.256
			c0.668,0.299,1.225,0.787,1.607,1.406C15.909,44.604,15.172,44.516,14.505,44.217L14.505,44.217z M13.997,39.631
			c-0.207-0.703-0.195-1.445,0.026-2.133c0.559,0.459,0.971,1.074,1.18,1.779c0.206,0.705,0.194,1.445-0.028,2.135
			C14.613,40.951,14.202,40.334,13.997,39.631L13.997,39.631z M17.662,41.596c0.641,0.332,1.17,0.852,1.521,1.496
			c0.347,0.648,0.488,1.375,0.413,2.098c-0.646-0.336-1.175-0.855-1.521-1.5C17.729,43.041,17.586,42.314,17.662,41.596
			L17.662,41.596z M10.394,39.412c-0.594-0.43-1.037-1.023-1.284-1.707c0.729,0.02,1.425,0.254,2.019,0.686
			c0.594,0.428,1.037,1.021,1.283,1.709C11.681,40.076,10.985,39.842,10.394,39.412L10.394,39.412z M11.31,32.738
			c0.453,0.566,0.727,1.252,0.787,1.984c0.057,0.732-0.109,1.453-0.469,2.084c-0.455-0.566-0.729-1.256-0.785-1.988
			C10.786,34.088,10.95,33.365,11.31,32.738L11.31,32.738z M7.362,33.861c-0.49-0.541-0.803-1.217-0.902-1.936
			c0.702,0.166,1.34,0.545,1.833,1.09c0.491,0.539,0.803,1.213,0.902,1.934C8.49,34.779,7.853,34.404,7.362,33.861L7.362,33.861z
			 M7.112,29.25c-0.654-0.312-1.2-0.812-1.569-1.445S5.01,26.449,5.06,25.723c0.653,0.312,1.199,0.811,1.57,1.445
			C6.997,27.801,7.163,28.523,7.112,29.25L7.112,29.25z M7.305,23.875c0.139-0.721,0.489-1.373,1.001-1.885
			c0.287,0.666,0.369,1.402,0.232,2.123C8.399,24.832,8.05,25.486,7.536,26C7.247,25.332,7.165,24.596,7.305,23.875L7.305,23.875z
			 M8.751,29.461c0.096-0.727,0.405-1.398,0.887-1.941c0.326,0.648,0.453,1.379,0.359,2.105c-0.096,0.725-0.405,1.398-0.888,1.939
			C8.781,30.918,8.655,30.188,8.751,29.461L8.751,29.461z M34.466,30.373c1.122-0.338,2.063-1.076,2.649-2.084
			c0.586-1.006,0.768-2.191,0.51-3.336l-0.113-0.502l-0.494,0.146c-0.568,0.17-1.09,0.443-1.544,0.805
			c0.104-0.561,0.104-1.139-0.007-1.707c-0.22-1.148-0.862-2.16-1.809-2.85l-0.417-0.305l-0.274,0.438
			c-0.621,0.988-0.842,2.168-0.625,3.316c0.221,1.141,0.858,2.146,1.796,2.838c-0.174,0.393-0.292,0.805-0.35,1.227
			c-0.278-0.762-0.753-1.445-1.392-1.973l-0.398-0.33l-0.301,0.42c-0.68,0.949-0.973,2.113-0.822,3.273
			c0.15,1.154,0.732,2.205,1.635,2.953l0.021,0.014c-0.266,0.361-0.475,0.754-0.623,1.172c-0.115-0.803-0.438-1.568-0.955-2.219
			l-0.322-0.404l-0.381,0.35c-0.859,0.789-1.386,1.865-1.48,3.033c-0.09,1.162,0.263,2.307,0.99,3.225l0.02,0.023
			c-0.336,0.295-0.62,0.639-0.854,1.016c0.055-0.812-0.104-1.629-0.475-2.371L28.22,36.08l-0.444,0.264
			c-1.006,0.596-1.743,1.541-2.076,2.662c-0.328,1.121-0.221,2.312,0.305,3.361l0.012,0.025c-0.389,0.221-0.738,0.496-1.043,0.818
			c0.221-0.783,0.234-1.615,0.023-2.416l-0.131-0.5l-0.49,0.164c-1.105,0.375-2.021,1.148-2.58,2.178
			c-0.534,0.994-0.68,2.143-0.419,3.24c-0.147,0.102-0.302,0.207-0.463,0.316c-0.161-0.109-0.315-0.215-0.463-0.316
			c0.261-1.098,0.116-2.246-0.42-3.242c-0.558-1.027-1.474-1.801-2.579-2.176l-0.489-0.164l-0.131,0.5
			c-0.211,0.801-0.197,1.633,0.023,2.416c-0.306-0.322-0.655-0.598-1.044-0.818l0.013-0.025c0.524-1.049,0.632-2.24,0.304-3.361
			c-0.333-1.121-1.07-2.066-2.076-2.662l-0.443-0.264l-0.231,0.461c-0.373,0.742-0.529,1.559-0.475,2.371
			c-0.234-0.379-0.52-0.721-0.854-1.016l0.018-0.023c0.73-0.918,1.082-2.062,0.99-3.227c-0.094-1.166-0.619-2.242-1.48-3.031
			l-0.381-0.35l-0.32,0.404c-0.518,0.65-0.841,1.416-0.955,2.219c-0.149-0.418-0.358-0.811-0.624-1.172l0.021-0.014
			c0.903-0.748,1.484-1.799,1.636-2.953c0.149-1.16-0.143-2.324-0.822-3.273l-0.301-0.42l-0.397,0.33
			c-0.641,0.527-1.115,1.211-1.393,1.975c-0.058-0.424-0.175-0.836-0.351-1.229c0.938-0.691,1.576-1.697,1.796-2.838
			c0.218-1.15-0.004-2.328-0.625-3.316l-0.274-0.438l-0.417,0.305c-0.946,0.689-1.589,1.701-1.81,2.848
			c-0.109,0.57-0.111,1.148-0.006,1.709c-0.454-0.361-0.976-0.635-1.544-0.805l-0.494-0.146l-0.113,0.502
			c-0.258,1.145-0.076,2.33,0.51,3.336c0.586,1.008,1.526,1.746,2.649,2.084l0.436,0.131c0.045,0.365,0.137,0.727,0.269,1.074
			c-0.622-0.398-1.333-0.641-2.083-0.701l-0.513-0.043l-0.008,0.518c-0.016,1.172,0.406,2.291,1.187,3.154
			c0.781,0.865,1.855,1.395,3.023,1.492l0.453,0.039c0.119,0.35,0.283,0.684,0.484,0.992c-0.508-0.189-1.045-0.289-1.598-0.289
			c-0.195,0-0.392,0.012-0.585,0.035l-0.512,0.066l0.1,0.504c0.228,1.152,0.871,2.162,1.814,2.848
			c0.784,0.57,1.716,0.871,2.69,0.871c0.191,0,0.385-0.012,0.574-0.035l0.451-0.059c0.191,0.318,0.419,0.609,0.682,0.873
			c-0.731-0.109-1.482-0.045-2.189,0.201l-0.488,0.17l0.203,0.475c0.459,1.078,1.299,1.934,2.361,2.408
			c0.591,0.264,1.216,0.396,1.859,0.396c0.514,0,1.021-0.086,1.509-0.254l0.359-0.125c0.602,0.51,1.279,1.018,2.209,1.656
			c-0.424,0.279-0.895,0.586-1.42,0.922l0.906,0.562c0.512-0.33,0.965-0.627,1.378-0.902c0.413,0.275,0.866,0.572,1.378,0.902
			l0.906-0.562c-0.525-0.336-0.995-0.643-1.419-0.922c0.929-0.639,1.606-1.146,2.208-1.656l0.359,0.125
			c0.488,0.168,0.996,0.254,1.509,0.254l0,0c0.644,0,1.269-0.133,1.859-0.395c1.064-0.477,1.903-1.332,2.362-2.41l0.201-0.475
			l-0.486-0.17c-0.707-0.246-1.459-0.311-2.189-0.199c0.262-0.264,0.49-0.557,0.681-0.875l0.451,0.059
			c0.19,0.023,0.384,0.035,0.575,0.035l0,0c0.975,0,1.904-0.301,2.689-0.871c0.943-0.686,1.588-1.695,1.814-2.848l0.1-0.504
			L33.4,36.775c-0.193-0.023-0.391-0.035-0.585-0.035c-0.552,0-1.09,0.1-1.597,0.289c0.201-0.309,0.363-0.643,0.484-0.992
			l0.452-0.039c1.169-0.098,2.242-0.627,3.022-1.492c0.782-0.863,1.203-1.982,1.188-3.154l-0.006-0.518l-0.516,0.043
			c-0.748,0.061-1.46,0.303-2.082,0.701c0.133-0.348,0.224-0.709,0.27-1.074L34.466,30.373L34.466,30.373z"/>
		<path fill="#FFFFFF" d="M34.59,40.555c-0.981,1.436-2.104,2.768-3.459,4.064c-4.176,3.836-8.866,5.955-10.188,6.506
			c-1.321-0.551-6.011-2.67-10.188-6.506c-1.354-1.297-2.477-2.629-3.458-4.064C2.553,33.607,1.93,25.553,1.926,19.293h0.006
			l19.017-1.057l19.013,1.055C39.956,25.551,39.334,33.607,34.59,40.555L34.59,40.555z M2.94,3.129
			c3.535-0.393,11.483-1.184,18.008-1.184c6.523,0,14.472,0.791,18.007,1.184l0.989,13.93H20.948H1.951L2.94,3.129L2.94,3.129z
			 M41.889,1.518l-0.843-0.105C40.934,1.398,29.702,0,20.954,0c-0.002,0-0.004,0-0.006,0s-0.005,0-0.007,0
			C12.194,0,0.963,1.398,0.852,1.412L0.008,1.518v15.541H0v2.168c0,6.547,0.648,15.008,5.707,22.416
			c1.042,1.525,2.227,2.934,3.646,4.303l-0.001,0.002c0.01,0.008,0.019,0.016,0.028,0.023c2.744,2.641,6.371,5.131,11.559,8.021V54
			c0.002-0.004,0.003-0.004,0.005-0.004s0.003,0,0.005,0.004v-0.008c5.188-2.891,8.814-5.381,11.559-8.021
			c0.01-0.008,0.019-0.016,0.027-0.023v-0.002c1.419-1.369,2.603-2.777,3.646-4.303c5.058-7.408,5.707-15.869,5.707-22.416v-0.309
			h0.001V1.518L41.889,1.518z"/>
	</g>
	<g>
		<polygon fill="#FFFFFF" points="53.266,3.215 53.266,14.188 55.683,14.188 58.535,6.314 67.834,6.189 67.834,43.76 60.395,44.566 
			60.705,46.736 71.12,46.551 81.163,46.736 81.473,44.566 74.344,43.76 74.344,6.189 83.643,6.314 86.495,14.188 88.913,14.188 
			88.913,3.215 71.059,3.4 		"/>
		<polygon fill="#FFFFFF" points="121.463,43.637 104.414,43.822 104.414,25.223 113.094,25.471 115.574,31.98 117.744,31.98 
			117.123,23.611 117.744,15.861 115.574,15.861 113.094,22.371 104.414,22.619 104.414,6.127 120.844,6.314 124.314,14.373 
			126.424,14.373 125.803,3.215 101.19,3.4 92.635,3.215 92.324,5.385 97.904,6.189 97.904,43.76 92.324,44.566 92.635,46.736 
			101.19,46.551 125.803,46.736 127.973,35.266 125.617,35.266 		"/>
		<path fill="#FFFFFF" d="M193.445,2.656l-3.721,1.055L174.35,43.885l-2.986,0.402l-2.967-0.465l-13.764-20.273l12.709-17.482
			l4.836-0.682l-0.309-2.17L164.615,3.4l-7.254-0.186l-0.311,2.17l5.395,0.805l-9.842,14.463l-8.758-14.525l5.27-0.805l-0.309-2.17
			L140.002,3.4l-8.866-0.248l-0.311,2.17l4.837,0.682l12.834,19.404l-13.391,18.414l-4.837,0.682l0.311,2.232l6.944-0.186
			l7.252,0.186l0.311-2.232l-5.084-0.744l10.568-15.461l9.643,15.4l-5.27,0.805l0.311,2.232l8.865-0.186l7.244,0.152l5.094-0.152
			l7.439,0.186l0.311-2.17l-5.395-0.807l4.031-11.594h15.312l4.217,11.594l-5.271,0.807l0.311,2.17l8.184-0.186l8.557,0.186
			l0.309-2.17l-4.836-0.682L193.445,2.656z M183.836,29.252l6.43-18.59l6.775,18.59H183.836z"/>
		<path fill="#FFFFFF" d="M235.48,22.371l-7.131-3.1c-3.408-1.488-5.826-3.596-5.826-7.006c0-4.154,2.914-6.82,7.811-6.82
			c3.721,0,5.705,1.365,7.316,3.039l1.797,5.641h3.1V5.756c-3.1-2.293-7.439-3.596-11.344-3.596
			c-8.619,1.799-14.818,5.766-14.818,12.523c0,5.518,3.658,8.369,8.121,10.291l7.502,3.285c3.721,1.613,6.447,4.031,6.447,8.246
			c0,4.527-3.1,7.875-8.43,7.875c-3.473,0-6.883-1.613-8.742-3.906l-2.17-5.27h-4.34l1.363,8.369
			c3.287,2.604,7.131,4.215,12.834,4.215c11.654-2.416,15.623-8.059,15.623-13.887C244.656,27.578,240.377,24.479,235.48,22.371z"/>
	</g>
</g>
<g display="none">
	<path display="inline" fill="#FFFFFF" d="M72.565,65.425l-1.241,0.04l-0.066-0.462l0.647-0.132v-3.775
		c0-0.687-0.317-0.99-0.845-0.99c-0.396,0-0.911,0.291-1.399,0.594l-0.396,0.25v3.92l0.726,0.132l-0.066,0.462l-1.254-0.04
		l-1.386,0.04l-0.066-0.462l0.792-0.132v-8.078l-0.476,0.079l-2.679-0.04v7.999l1.518,0.171l-0.066,0.462l-2.139-0.04l-2.217,0.04
		l-0.066-0.462l1.584-0.171v-7.999l-1.98,0.04l-0.607,1.65h-0.515v-2.336l3.788,0.026l3.247-0.026l1.412-0.158h0.449v4.276
		l1.927-1.254c1.689,0,1.967,0.633,1.967,2.31v3.511l0.99,0.132l-0.066,0.462L72.565,65.425z"/>
	<path display="inline" fill="#FFFFFF" d="M75.998,62.086c0,1.505,0.805,2.574,2.191,2.574c0.528,0,1.162-0.25,1.65-0.554
		l0.211,0.501c-0.634,0.436-1.465,0.805-2.31,1.042c-1.597,0-3.036-1.135-3.036-3.207c0-1.954,1.175-2.996,2.983-3.392
		c1.742,0,2.336,1.095,2.336,2.481v0.554H75.998z M78.651,61.426c0-1.016-0.198-1.716-1.214-1.716c-0.805,0-1.32,0.752-1.426,1.848
		L78.651,61.426z"/>
	<path display="inline" fill="#FFFFFF" d="M89.013,56.661l0.066-0.462l1.689,0.04l1.544-0.04l0.066,0.462l-1.122,0.172v5.385
		c0,1.716-0.699,2.864-3.326,3.472c-2.601,0-3.524-1.399-3.524-3.498v-5.358l-1.188-0.172l0.066-0.462l1.821,0.04l1.808-0.04
		l0.066,0.462l-1.122,0.172v5.557c0,1.637,0.699,2.574,2.204,2.574c1.373,0,2.138-0.924,2.138-2.613v-5.517L89.013,56.661z"/>
	<path display="inline" fill="#FFFFFF" d="M94.161,65.425l-1.518,0.04l-0.066-0.462l0.924-0.132v-4.818l-0.924,0.079l-0.066-0.462
		l1.584-0.409l0.567-0.04l0.066,1.109l1.954-1.28c1.689,0,1.966,0.567,1.966,2.151v3.669l1.003,0.132l-0.066,0.462l-1.518-0.04
		l-1.267,0.04l-0.066-0.462l0.66-0.132v-3.775c0-0.687-0.304-0.99-0.872-0.99c-0.462,0-0.924,0.291-1.373,0.594l-0.396,0.264v3.907
		l0.726,0.132l-0.066,0.462L94.161,65.425z"/>
	<path display="inline" fill="#FFFFFF" d="M101.725,65.425l-1.518,0.04l-0.066-0.462l0.924-0.132v-4.818l-0.924,0.079l-0.066-0.462
		l1.584-0.409l0.66-0.053v5.663l0.99,0.132l-0.066,0.462L101.725,65.425z M101.064,56.344l0.951-0.066l0.369,0.066l0.066,0.739
		l-0.146,0.634l-0.937,0.079l-0.356-0.079l-0.079-0.739L101.064,56.344z"/>
	<path display="inline" fill="#FFFFFF" d="M107.018,64.607l1.597-4.778l-0.607-0.132l0.066-0.462l1.162,0.04l1.096-0.04l0.066,0.462
		l-0.845,0.132l-2.165,5.425l-0.963,0.396l-2.297-5.82l-0.818-0.132l0.066-0.462l1.518,0.04l1.386-0.04l0.066,0.462l-0.871,0.132
		l1.439,3.867L107.018,64.607z"/>
	<path display="inline" fill="#FFFFFF" d="M111.69,62.086c0,1.505,0.805,2.574,2.191,2.574c0.528,0,1.162-0.25,1.65-0.554
		l0.211,0.501c-0.634,0.436-1.465,0.805-2.31,1.042c-1.597,0-3.036-1.135-3.036-3.207c0-1.954,1.175-2.996,2.983-3.392
		c1.742,0,2.336,1.095,2.336,2.481v0.554H111.69z M114.343,61.426c0-1.016-0.198-1.716-1.214-1.716c-0.805,0-1.32,0.752-1.426,1.848
		L114.343,61.426z"/>
	<path display="inline" fill="#FFFFFF" d="M118.673,60.964l1.505-1.848h1.056v1.32h-0.977c-0.317,0.066-0.897,0.501-1.254,0.937
		l-0.264,0.317v3.142l1.386,0.132l-0.066,0.501l-1.914-0.04l-1.479,0.04l-0.066-0.462l0.924-0.132v-4.818l-0.924,0.079l-0.066-0.462
		l1.584-0.409l0.528-0.04L118.673,60.964z"/>
	<path display="inline" fill="#FFFFFF" d="M125.392,59.987c-0.132-0.079-0.528-0.291-1.003-0.291c-0.515,0-1.003,0.277-1.003,0.779
		c0,0.422,0.33,0.687,0.924,0.99l1.016,0.515c0.884,0.449,1.241,0.95,1.241,1.703c0,1.188-0.963,1.637-2.481,1.966
		c-0.805,0-1.663-0.396-2.006-0.594l-0.251-1.491h0.845l0.449,1.095c0.277,0.185,0.66,0.33,1.083,0.33
		c0.699,0,1.056-0.449,1.056-1.003c0-0.515-0.277-0.739-0.963-1.096l-1.043-0.541c-0.567-0.291-1.108-0.792-1.108-1.531
		c0-0.924,0.858-1.438,2.389-1.769c0.713,0,1.479,0.317,1.861,0.594v1.32h-0.7L125.392,59.987z"/>
	<path display="inline" fill="#FFFFFF" d="M129.035,65.425l-1.518,0.04l-0.066-0.462l0.924-0.132v-4.818l-0.924,0.079l-0.066-0.462
		l1.584-0.409l0.66-0.053v5.663l0.99,0.132l-0.066,0.462L129.035,65.425z M128.375,56.344l0.951-0.066l0.369,0.066l0.066,0.739
		l-0.146,0.634l-0.937,0.079l-0.356-0.079l-0.079-0.739L128.375,56.344z"/>
	<path display="inline" fill="#FFFFFF" d="M135.583,68.553v-1.32h1.135l1.307-1.993l-0.528,0.158l-2.217-5.557h-1.993v4.025
		c0,0.383,0.146,0.792,0.7,0.792c0.383,0,0.792-0.185,1.162-0.37l0.224,0.449l-1.663,0.911c-1.478,0-1.676-0.528-1.676-1.716V60
		h-1.28v-0.224l0.462-0.462h0.858v-0.858l0.858-0.858h0.343v1.65h4.158l0.066,0.449l-0.871,0.132l1.465,3.867l0.105,0.911
		l1.637-4.778l-0.607-0.132l0.066-0.462l1.162,0.04l1.096-0.04l0.066,0.462l-0.845,0.132l-2.138,5.398l-1.479,3.326H135.583z"/>
	<path display="inline" fill="#FFFFFF" d="M150.313,62.218c0,1.967-1.201,3.102-3.247,3.432c-1.755,0-2.943-1.359-2.943-3.154
		c0-1.98,1.201-3.102,3.247-3.445C149.125,59.05,150.313,60.423,150.313,62.218z M147.396,65.003c1.056,0,1.597-1.083,1.597-2.508
		c0-1.676-0.805-2.798-1.954-2.798c-1.069,0-1.597,1.083-1.597,2.521C145.443,63.723,146.222,65.003,147.396,65.003z"/>
	<path display="inline" fill="#FFFFFF" d="M153.284,59.38h1.649V60h-1.649v4.871l1.518,0.092l-0.066,0.501l-2.046-0.04l-1.518,0.04
		l-0.066-0.462l0.924-0.132V60h-1.162v-0.224l0.396-0.462h0.766v-0.132c0-0.792,0.25-1.307,0.726-1.848l1.109-1.254h1.663v1.056
		h-1.716l-0.251,0.356c-0.185,0.251-0.277,0.634-0.277,1.492V59.38z"/>
	<path display="inline" fill="#FFFFFF" d="M165.032,65.465l-2.139-0.04l-2.217,0.04l-0.066-0.462l1.584-0.171v-7.999l-1.98,0.026
		l-0.607,1.676h-0.515v-2.336l3.788,0.04l3.801-0.04v2.336h-0.515l-0.607-1.676l-1.98-0.026v7.999l1.518,0.171L165.032,65.465z"/>
	<path display="inline" fill="#FFFFFF" d="M167.381,62.086c0,1.505,0.805,2.574,2.191,2.574c0.528,0,1.162-0.25,1.65-0.554
		l0.211,0.501c-0.634,0.436-1.465,0.805-2.31,1.042c-1.597,0-3.036-1.135-3.036-3.207c0-1.954,1.175-2.996,2.983-3.392
		c1.742,0,2.336,1.095,2.336,2.481v0.554H167.381z M170.034,61.426c0-1.016-0.198-1.716-1.214-1.716
		c-0.805,0-1.32,0.752-1.426,1.848L170.034,61.426z"/>
	<path display="inline" fill="#FFFFFF" d="M174.417,65.003l-0.066,0.462l-1.029-0.04l-1.36,0.04l-0.066-0.462l0.924-0.132
		l1.953-2.402l-1.914-2.626l-0.818-0.132l0.066-0.475l1.518,0.04l1.254-0.04l0.066,0.475l-0.515,0.132l0.977,1.465l0.105,0.343
		l1.254-1.808l-0.647-0.132l0.066-0.475l1.03,0.04l1.359-0.04l0.066,0.475l-0.95,0.132l-1.742,2.112l2.072,2.917l0.818,0.132
		l-0.066,0.462l-1.518-0.04L176,65.465l-0.066-0.462l0.541-0.132l-1.175-1.703l-0.105-0.304l-1.399,2.006L174.417,65.003z"/>
	<path display="inline" fill="#FFFFFF" d="M181.901,59.05c1.663,0,2.085,0.422,2.085,2.099v2.587c0,0.567,0.092,0.779,0.225,0.99
		h0.66l0.053,0.462l-1.703,0.33l-0.409-1.016l-1.57,1.148c-1.135,0-1.94-0.633-1.94-1.689c0-0.475,0.171-0.818,0.462-1.214
		l2.97-0.99v-0.66c0-0.792-0.066-1.267-0.779-1.267c-0.356,0-0.792,0.119-1.082,0.237l-0.225,1.043h-1.135v-1.003L181.901,59.05z
		 M182.732,62.284l-1.914,0.792c-0.198,0.198-0.264,0.462-0.264,0.739c0,0.673,0.383,0.911,0.766,0.911
		c0.37,0,0.686-0.224,0.858-0.343L182.732,64V62.284z"/>
	<path display="inline" fill="#FFFFFF" d="M189.015,59.987c-0.132-0.079-0.528-0.291-1.003-0.291c-0.515,0-1.003,0.277-1.003,0.779
		c0,0.422,0.33,0.687,0.924,0.99l1.016,0.515c0.884,0.449,1.241,0.95,1.241,1.703c0,1.188-0.963,1.637-2.481,1.966
		c-0.805,0-1.663-0.396-2.006-0.594l-0.251-1.491h0.845l0.449,1.095c0.277,0.185,0.66,0.33,1.083,0.33
		c0.699,0,1.056-0.449,1.056-1.003c0-0.515-0.277-0.739-0.963-1.096l-1.043-0.541c-0.567-0.291-1.108-0.792-1.108-1.531
		c0-0.924,0.858-1.438,2.389-1.769c0.713,0,1.479,0.317,1.861,0.594v1.32h-0.7L189.015,59.987z"/>
	<path display="inline" fill="#FFFFFF" d="M196.842,59.05c1.663,0,2.086,0.422,2.086,2.099v2.587c0,0.567,0.092,0.779,0.224,0.99
		h0.66l0.053,0.462l-1.703,0.33l-0.409-1.016l-1.57,1.148c-1.135,0-1.94-0.633-1.94-1.689c0-0.475,0.171-0.818,0.462-1.214
		l2.97-0.99v-0.66c0-0.792-0.066-1.267-0.779-1.267c-0.356,0-0.792,0.119-1.082,0.237l-0.225,1.043h-1.135v-1.003L196.842,59.05z
		 M197.674,62.284l-1.914,0.792c-0.198,0.198-0.264,0.462-0.264,0.739c0,0.673,0.383,0.911,0.766,0.911
		c0.37,0,0.686-0.224,0.858-0.343L197.674,64V62.284z"/>
	<path display="inline" fill="#FFFFFF" d="M199.8,60v-0.224l0.462-0.462h0.857v-0.858l0.858-0.858h0.343v1.809h1.993V60h-1.979
		v3.867c0,0.383,0.145,0.792,0.699,0.792c0.383,0,0.673-0.132,1.043-0.317l0.224,0.449l-1.544,0.858
		c-1.479,0-1.676-0.528-1.676-1.716V60H199.8z"/>
	<path display="inline" fill="#FFFFFF" d="M209.884,62.363l-0.857,2.468l1.147,0.171l-0.065,0.462l-1.584-0.04l-1.412,0.04
		l-0.066-0.462l1.029-0.145l3.273-8.553l0.792-0.224l3.445,8.777l1.029,0.145l-0.066,0.462l-1.821-0.04l-1.742,0.04l-0.065-0.462
		l1.121-0.171l-0.897-2.468H209.884z M211.64,58.258l-0.093-0.713l-1.452,4.197h2.812L211.64,58.258z"/>
	<path display="inline" fill="#FFFFFF" d="M222.226,63.736c0,0.567,0.066,0.779,0.158,0.99h0.66l0.053,0.462l-1.703,0.33
		l-0.369-1.069l-1.914,1.201c-1.742,0-2.032-0.62-2.032-2.151v-3.445l-0.924,0.066l-0.066-0.515l1.584-0.343l0.66-0.053v4.396
		c0,0.686,0.29,0.99,0.937,0.99c0.409,0,0.938-0.33,1.439-0.66l0.264-0.171v-3.709l-0.792,0.066l-0.066-0.515l1.452-0.343
		l0.66-0.053V63.736z"/>
	<path display="inline" fill="#FFFFFF" d="M227.255,59.987c-0.132-0.079-0.528-0.291-1.004-0.291c-0.515,0-1.003,0.277-1.003,0.779
		c0,0.422,0.33,0.687,0.924,0.99l1.017,0.515c0.885,0.449,1.241,0.95,1.241,1.703c0,1.188-0.964,1.637-2.481,1.966
		c-0.806,0-1.663-0.396-2.007-0.594l-0.251-1.491h0.845l0.449,1.095c0.277,0.185,0.66,0.33,1.082,0.33
		c0.7,0,1.057-0.449,1.057-1.003c0-0.515-0.277-0.739-0.964-1.096l-1.043-0.541c-0.567-0.291-1.108-0.792-1.108-1.531
		c0-0.924,0.857-1.438,2.389-1.769c0.713,0,1.479,0.317,1.861,0.594v1.32h-0.699L227.255,59.987z"/>
	<path display="inline" fill="#FFFFFF" d="M228.853,60v-0.224l0.462-0.462h0.857v-0.858l0.858-0.858h0.343v1.809h1.993V60h-1.979
		v3.867c0,0.383,0.145,0.792,0.699,0.792c0.383,0,0.673-0.132,1.043-0.317l0.224,0.449l-1.544,0.858
		c-1.479,0-1.676-0.528-1.676-1.716V60H228.853z"/>
	<path display="inline" fill="#FFFFFF" d="M235.704,65.425l-1.518,0.04l-0.066-0.462l0.924-0.132v-4.818l-0.924,0.079l-0.066-0.462
		l1.584-0.409l0.66-0.053v5.663l0.99,0.132l-0.066,0.462L235.704,65.425z M235.043,56.344l0.95-0.066l0.37,0.066l0.065,0.739
		l-0.145,0.634l-0.938,0.079l-0.356-0.079l-0.079-0.739L235.043,56.344z"/>
	<path display="inline" fill="#FFFFFF" d="M239.465,65.425l-1.518,0.04l-0.066-0.462l0.924-0.132v-4.818l-0.924,0.079l-0.066-0.462
		l1.584-0.409l0.568-0.04l0.065,1.109l1.953-1.28c1.689,0,1.967,0.567,1.967,2.151v3.669l1.003,0.132l-0.065,0.462l-1.518-0.04
		l-1.268,0.04l-0.066-0.462l0.66-0.132v-3.775c0-0.687-0.304-0.99-0.871-0.99c-0.462,0-0.924,0.291-1.372,0.594l-0.396,0.264v3.907
		l0.726,0.132l-0.065,0.462L239.465,65.425z"/>
</g>
</svg>
